<?xml version="1.0" encoding="UTF-8" standalone="no"?>
<svg
   xmlns:dc="http://purl.org/dc/elements/1.1/"
   xmlns:cc="http://creativecommons.org/ns#"
   xmlns:rdf="http://www.w3.org/1999/02/22-rdf-syntax-ns#"
   xmlns:svg="http://www.w3.org/2000/svg"
   xmlns="http://www.w3.org/2000/svg"
   xmlns:xlink="http://www.w3.org/1999/xlink"
   xmlns:sodipodi="http://sodipodi.sourceforge.net/DTD/sodipodi-0.dtd"
   xmlns:inkscape="http://www.inkscape.org/namespaces/inkscape"
   sodipodi:docname="genericroundedbutton.svg"
   inkscape:version="1.0 (4035a4fb49, 2020-05-01)"
   id="svg8"
   version="1.1"
   viewBox="0 0 400 200"
   height="200"
   width="400">
  <defs
     id="defs2">
    <linearGradient
       inkscape:collect="always"
       id="Line_gradient">
      <stop
         style="stop-color:#000000;stop-opacity:1;"
         offset="0"
         id="stop1431" />
      <stop
         style="stop-color:#000000;stop-opacity:0;"
         offset="1"
         id="stop1433" />
    </linearGradient>
    <radialGradient
       gradientUnits="userSpaceOnUse"
       gradientTransform="matrix(1.1778875,0,0,0.00633771,-26.417384,75.94419)"
       r="157.78572"
       fy="76.428574"
       fx="197.85715"
       cy="76.428574"
       cx="197.85715"
       id="radialGradient1440"
       xlink:href="#Line_gradient"
       inkscape:collect="always" />
    <radialGradient
       inkscape:collect="always"
       xlink:href="#Line_gradient"
       id="radialGradient1440-8"
       cx="197.85715"
       cy="76.428574"
       fx="197.85715"
       fy="76.428574"
       r="157.78572"
       gradientTransform="matrix(1.1778875,0,0,0.00633771,-25.196317,122.37276)"
       gradientUnits="userSpaceOnUse" />
    <radialGradient
       inkscape:collect="always"
       xlink:href="#Line_gradient"
       id="radialGradient1440-4"
       cx="197.85715"
       cy="76.428574"
       fx="197.85715"
       fy="76.428574"
       r="157.78572"
       gradientTransform="matrix(6.9222357e-4,-0.460172,0.0063377,9.533625e-6,310.12041,193.54759)"
       gradientUnits="userSpaceOnUse" />
    <radialGradient
       gradientUnits="userSpaceOnUse"
       gradientTransform="matrix(6.9222357e-4,-0.460172,0.0063377,9.533625e-6,89.021514,190.11902)"
       r="157.78572"
       fy="76.428574"
       fx="197.85715"
       cy="76.428574"
       cx="197.85715"
       id="radialGradient1440-4-7"
       xlink:href="#Line_gradient"
       inkscape:collect="always" />
  </defs>
  <sodipodi:namedview
     inkscape:window-maximized="1"
     inkscape:window-y="-8"
     inkscape:window-x="-8"
     inkscape:window-height="1009"
     inkscape:window-width="1920"
     inkscape:snap-grids="false"
     inkscape:snap-to-guides="false"
     inkscape:pagecheckerboard="true"
     units="px"
     showgrid="false"
     inkscape:document-rotation="0"
     inkscape:current-layer="layer4"
     inkscape:document-units="px"
     inkscape:cy="86.701274"
     inkscape:cx="178.74112"
     inkscape:zoom="3.959798"
     inkscape:pageshadow="2"
     inkscape:pageopacity="0.0"
     borderopacity="1.0"
     bordercolor="#666666"
     pagecolor="#ffffff"
     id="base" />
  <metadata
     id="metadata5">
    <rdf:RDF>
      <cc:Work
         rdf:about="">
        <dc:format>image/svg+xml</dc:format>
        <dc:type
           rdf:resource="http://purl.org/dc/dcmitype/StillImage" />
        <dc:title></dc:title>
      </cc:Work>
    </rdf:RDF>
  </metadata>
  <g
     style="display:none"
     id="layer1"
     inkscape:groupmode="layer"
     inkscape:label="guide polygon">
    <rect
       y="76.918999"
       x="89.418999"
       height="46.161949"
       width="221.162"
       id="rect1407"
       style="opacity:0.403226;fill:#b3b3b3;fill-opacity:0;stroke:#000000;stroke-width:3;stroke-linecap:round;stroke-miterlimit:4;stroke-dasharray:3, 3;stroke-dashoffset:0;paint-order:stroke fill markers" />
  </g>
  <g
     inkscape:label="Button Fill"
     id="layer4"
     inkscape:groupmode="layer">
    <path
       style="opacity:1;fill:#ebb800;fill-opacity:0.895582;fill-rule:nonzero;stroke:none;stroke-width:4.76216;stroke-linecap:round;stroke-miterlimit:4;stroke-dasharray:none;stroke-dashoffset:0;stroke-opacity:0.7;paint-order:stroke fill markers"
       id="path1647"
       d="m 292.91974,99.93352 c -0.0393,-0.0645 -0.0447,-0.16384 -0.11807,-0.1936 -0.0587,-0.0238 -0.23851,0.0713 -0.17449,0.0751 0.68619,0.0414 1.41036,-0.16261 2.06254,0.0388 0.2603,0.0804 -0.46858,0.2656 -0.71491,0.37744 -1.12119,0.50898 -1.42986,0.27775 -0.60186,0.59036 -0.48613,0.15379 -1.45121,-0.0134 -1.45839,0.46138 -0.007,0.44685 0.97096,-0.0218 1.45091,0.0344 0.17186,0.0202 0.5491,0.0462 0.47657,0.19152 -0.0859,0.17245 -0.77014,0.19775 -0.61089,0.0776 0.46628,-0.35156 2.58461,0.0643 -0.85191,-0.33501 6.76823,-0.0234 1.14453,0.30649 0.84686,0.27664 -0.1077,-0.0109 -0.0156,-0.22648 -0.10387,-0.28447 -0.30972,-0.20347 -0.74152,-0.22603 -1.02661,-0.4582 -0.0775,-0.0631 0.13268,-0.18298 0.23595,-0.18566 0.45683,-0.0118 0.9081,0.096 1.36215,0.14399 0.87863,0.23294 0.96798,0.27595 -1.20675,-0.55945 -0.3091,-0.11874 0.66463,0.18369 0.90836,0.39567 0.12453,0.10832 -0.36237,0.0297 -0.51034,-0.0495 -0.39417,-0.21114 -1.43723,-1.0341 -1.06339,-0.79345 1.04273,0.67122 2.04791,1.39088 3.07185,2.08632 -0.94793,0.46911 -3.16237,-3.27283 -3.65645,-2.03938 -0.35037,0.8746 1.78702,1.10414 2.14324,1.9767 0.23007,0.56363 -1.0585,-0.78891 -1.7008,-0.89283 -0.25288,-0.041 0.15083,0.4578 0.27973,0.6629 0.18582,0.29571 0.43774,0.55144 0.65662,0.82716 -0.36502,-0.1096 -0.71336,-0.36597 -1.09507,-0.32879 -0.15657,0.0153 0.0518,0.28863 0.10601,0.42517 0.13518,0.34061 0.83648,0.89736 0.46038,1.0018 -0.54093,0.15018 -1.45827,-1.22994 -1.50996,-0.71037 -0.14164,1.42344 2.41878,1.98215 1.05212,1.64518 -1.73154,-0.96559 -1.97706,-1.4773 -1.04934,0.19362 0.15538,0.27985 0.4288,0.50938 0.51901,0.81264 0.057,0.1913 0.11216,0.58042 -0.10246,0.58759 -0.42645,0.0143 -0.76324,-0.3534 -1.13542,-0.54625 -0.34922,-0.18095 -0.6851,-0.38305 -1.02764,-0.57456 -0.12923,0.017 -0.29664,0.13742 -0.38765,0.051 -0.32514,-0.30871 -0.36727,-0.8279 -0.7234,-1.10588 -0.20202,-0.15771 0.12191,0.47658 0.21162,0.7064 0.15084,0.38638 0.89066,1.82383 0.90636,2.15975 0.007,0.14644 -0.2836,-0.13155 -0.4254,-0.19732 -0.38377,-0.10057 -0.18814,0.92629 -0.40626,0.7378 -0.48212,-0.41664 -0.56831,-1.124 -1.02149,-1.56747 -0.12338,-0.12078 -0.46087,-0.10838 -0.53736,0.0419 -0.23782,0.4672 -0.0512,1.05183 -0.2626,1.5297 -0.0965,0.2181 -0.40376,0.28801 -0.60564,0.432 -1.21083,0.20172 -0.24516,0.21075 -1.50701,-0.54993 -0.15293,-0.0922 -0.4029,-0.0216 -0.5239,-0.14795 -0.34967,-0.36515 -0.36455,-1.50319 -0.8173,-1.25263 -1.78699,0.98894 0.76607,3.52534 -1.41215,0.85036 -1.91239,-0.99824 0.84901,0.15739 -1.34456,1.45517 -0.37373,0.22112 -0.30367,-1.13938 -0.7308,-1.02807 -0.53768,0.14011 -0.16578,1.5258 -0.70843,1.4031 -3.48174,-0.78712 1.0383,-2.50376 -1.49127,-1.37853 -1.14664,0.73906 -0.44122,0.42542 -1.67363,0.72121 -0.27712,0.0665 -0.59307,0.37032 -0.82625,0.21684 -0.43002,-0.28303 -0.58726,-0.81953 -0.77952,-1.27378 -0.31956,-0.75498 0.0117,-1.92421 -0.74667,-2.33204 -0.52551,-0.28258 -0.45831,1.04056 -0.68746,1.56084 -0.37192,-0.1355 -0.98731,-0.49328 -1.40859,-0.1155 -0.36815,0.33012 -0.33185,1.43066 -0.79125,1.21961 -0.63996,-0.29402 0.0426,-2.0175 -0.65768,-1.8853 -4.42124,0.83467 1.02007,3.09123 -1.69725,1.81338 -0.79125,-1.03377 -1.16155,1.06564 -1.58646,0.69405 -0.57158,-0.49986 -0.22647,-2.68128 -0.68185,-2.08829 -0.87851,1.14406 -0.28049,2.84093 -0.88438,4.12788 -0.14051,0.29944 -0.59824,-0.4161 -0.71244,-0.72496 -0.35182,-0.95161 -0.43249,-1.97108 -0.64873,-2.95663 -0.57591,1.08981 -0.32485,1.80185 -1.51257,1.3432 -0.27608,-0.1066 -0.48754,-0.32279 -0.74942,-0.45656 -0.20694,-0.1057 -0.47723,-0.11153 -0.65161,-0.25907 -0.29796,-0.25206 -0.32094,-0.84034 -0.7196,-0.90098 -0.36031,-0.0548 -0.54989,0.44401 -0.82484,0.66602 -2.15371,-1.19245 0.96616,0.19466 -1.78627,1.28298 -0.84232,0.33305 -1.01011,-2.40426 -1.77519,-1.93857 -1.96617,1.19674 -0.0401,4.17857 -1.84851,0.14805 -0.12792,0.0584 -1.59509,0.75026 -1.73999,0.72531 -0.37861,-0.0652 -0.5273,-0.64033 -0.91209,-0.65512 -0.38788,-0.015 -0.59422,0.5366 -0.97928,0.58241 -0.31118,0.037 -0.55917,-0.26693 -0.85473,-0.36419 -0.29224,-0.0962 -0.601,-0.14253 -0.90148,-0.21378 -2.02547,1.73068 -5e-4,0.55838 -1.87116,-0.49627 -0.0708,-0.0399 -1.95751,0.68401 -1.97302,0.68106 -2.33563,-0.44457 0.39426,-1.40689 -1.97931,-0.24798 -0.95989,1.02795 -0.84474,1.63333 -1.92681,0.39377 -0.35995,-0.41235 -0.30377,-1.37329 -0.87715,-1.36702 -3.57164,0.0389 0.88311,2.29397 -1.86589,1.24679 -0.33581,-0.12792 -0.60773,-0.36771 -0.91159,-0.55158 -1.60993,-1.08843 -0.4134,-0.71532 -1.92196,0.81703 -0.27872,0.28312 -0.66182,0.47217 -1.03974,0.62894 -0.32778,0.13596 -0.76291,0.43988 -1.047,0.2367 -3.04221,-2.17604 0.60154,-1.55013 -2.0455,-1.8132 -0.54372,0.0251 -1.59193,-0.0161 -2.05069,0.37574 -0.4529,0.38673 -0.46457,1.65251 -1.02814,1.42104 -1.533,-0.62967 -0.45954,-4.11701 -2.01957,-4.03452 -0.77152,0.0409 -0.72187,1.26241 -1.0828,1.89362 -2.19438,-1.72027 0.0721,-0.50548 -2.17322,0.69311 -0.33577,0.17923 -0.73828,-0.48759 -1.0983,-0.35445 -0.52899,0.19567 -0.60239,1.36698 -1.13528,1.18059 -4.5674,-1.59765 1.12829,-2.44961 -2.21603,-1.75224 -1.22496,0.5909 -0.90612,0.55943 -2.22008,0.74364 -0.35875,0.0503 -0.77272,0.27564 -1.08299,0.10185 -0.49248,-0.27584 -0.45148,-1.26004 -1.02684,-1.28363 -0.56173,-0.023 -0.67696,0.83473 -1.0795,1.19735 -0.31162,0.28071 -0.6988,0.47957 -1.04819,0.71934 -0.34199,0.23327 -0.61019,0.7816 -1.02596,0.69977 -0.49759,-0.0979 -0.63801,-0.73233 -0.96578,-1.09176 -0.31073,-0.34077 -0.58722,-0.7145 -0.94951,-1.00861 -0.28415,-0.23067 -0.67537,-0.76964 -0.96761,-0.54775 -2.22981,1.69302 0.0994,2.95816 -2.0525,1.33024 -0.3699,-0.19334 -0.73981,-0.38666 -1.1097,-0.57999 -0.41373,0.56026 -0.52516,1.83072 -1.24117,1.68078 -0.85592,-0.17922 -0.32207,-1.94146 -1.15966,-2.18351 -0.65128,-0.1882 -0.64409,1.23771 -1.27392,1.48028 -0.41011,0.15795 -0.80373,-0.35018 -1.2056,-0.52529 -0.40212,0.30815 -0.80424,0.6163 -1.20637,0.92443 -1.5131,0.15974 -1.04414,-2.46222 -2.19485,-2.4614 -0.67769,5.1e-4 -0.49442,1.2882 -1.09137,1.58452 -0.34465,0.17108 -0.63144,-0.57829 -1.02006,-0.5364 -1.28152,0.94824 -0.5861,0.77361 -2.01766,0.71735 -0.32426,-0.38171 -0.51207,-1.37815 -0.97279,-1.14511 -0.7807,0.39486 -0.47145,1.69917 -1.15776,2.2227 -0.31729,0.24205 -0.79535,-0.24975 -1.11539,-0.48868 -0.44475,-0.33206 -0.56751,-1.26822 -1.13305,-1.18994 -6.04669,0.83683 2.29211,2.19297 -2.24324,1.2717 -0.37909,-0.42308 -0.74116,-0.85968 -1.13731,-1.26923 -0.3679,-0.38034 -0.6084,-1.18229 -1.15308,-1.09858 -1.41016,0.21668 -1.18539,3.59487 -2.2875,3.18229 -5.00091,-1.87216 1.26128,-3.36978 -2.42154,-2.24699 -0.41039,0.0136 -0.87312,-0.14495 -1.23119,0.0408 -0.53161,0.27571 -0.63141,1.2223 -1.24073,1.24133 -0.94009,0.0293 -1.11211,-2.2555 -2.53789,-1.09428 -0.62953,0.51272 -0.4415,2.13031 -1.27026,2.00808 -0.94425,-0.13925 -0.83922,-1.58739 -1.25884,-2.38108 -0.47115,0.58236 -1.87683,-0.93428 -2.36474,-0.35057 -0.67489,0.80744 -0.0139,2.78348 -1.11297,2.88245 -5.41816,0.48787 1.57509,-4.94428 -2.19392,-1.82809 -0.36618,0.30275 -0.7171,0.62088 -1.07566,0.93132 -0.40395,-0.6255 -0.50659,-1.55078 -1.21183,-1.87653 -0.42762,-0.19751 -0.68185,0.74059 -1.15784,0.78197 -0.0302,0.003 -2.26687,-1.14613 -2.30217,-1.15947 -0.35311,-0.13353 -0.73884,-0.17649 -1.1066,-0.27042 -0.36078,-0.0922 -0.71925,-0.19185 -1.07885,-0.28778 -0.32817,0.95661 -0.2452,2.13456 -0.98451,2.8698 -0.31607,0.31431 -0.6902,-0.5742 -1.03843,-0.85803 -0.33835,-0.27579 -0.60087,-0.66935 -1.02128,-0.82078 -0.31413,-0.11314 -0.72817,-0.0851 -1.00679,0.0903 -0.47,0.29588 -0.55984,1.43924 -1.0777,1.222 -0.80428,-0.33733 -0.80383,-1.45318 -1.20574,-2.17976 -0.41083,0.1335 -0.93831,0.10385 -1.23249,0.40048 -0.5837,0.58863 -0.47497,1.74063 -1.2468,2.0996 -0.1058,0.0492 -2.5189,-1.90555 -2.56164,-1.90099 -4.27778,0.45558 1.30187,2.24719 -2.43108,0.77196 -0.67796,-0.45814 -1.60716,1.11759 -2.27458,0.70968 -0.60428,-0.36934 -0.48601,-1.38671 -1.11045,-1.72624 -0.33312,-0.18111 -2.0604,1.14509 -2.23099,1.18666 -0.34098,0.0831 -0.69387,-0.11679 -1.04082,-0.17517 -3.34076,1.59068 2.72443,-0.91867 -1.97041,-1.43499 -0.68301,-0.0751 -0.51805,1.2045 -0.97342,1.6807 -0.2227,0.23287 -0.69045,0.52855 -0.94547,0.32591 -1.8323,-1.456 -0.18324,-2.96068 -1.82375,-0.79392 -3.9821,1.19396 5.37553,-1.88432 -1.65464,2.91895 -0.5041,0.34443 -0.36496,-1.31542 -0.96164,-1.49332 -0.41606,-0.12405 -0.39668,0.7798 -0.78001,0.97401 -0.96818,0.49053 -1.69947,-1.46781 -1.77542,-1.58602 -1.73822,-2.85797 -0.59091,2.87967 -2.57666,1.05643 -0.42512,-0.3903 -0.42989,-1.70163 -0.94245,-1.41461 -1.85976,1.04129 0.3933,5.29928 -1.69083,0.0167 -0.30061,-0.048 -1.26948,-0.26267 -1.59594,-0.0845 -0.31907,0.17411 -0.45874,0.54079 -0.72698,0.77697 -0.175,0.15408 -0.44517,0.56196 -0.59321,0.38543 -1.35687,-1.61801 0.14658,-2.48075 -1.29395,-1.34886 -0.22891,-0.30465 -0.5928,1.85166 -1.18677,1.54118 -0.41662,-0.21776 -0.29538,-0.86378 -0.59896,-1.20567 -0.14227,-0.16024 -0.5015,-0.35295 -0.64066,-0.19041 -1.05149,1.22817 -0.0899,2.52195 -1.04422,0.71551 -1.68404,-2.81237 0.46305,0.23922 -1.04088,-0.84915 -0.25198,-0.18237 -0.20796,-0.69843 -0.52439,-0.74318 -0.74001,-0.10465 -0.35691,1.71742 -1.0989,1.80934 -0.41185,0.051 -0.30022,-0.71582 -0.45032,-1.07374 -0.91995,0.77775 -0.6061,-1.32757 -1.42727,-0.87624 -0.27951,0.15365 -0.33277,0.52163 -0.55334,0.74246 -1.50659,1.50855 0.49927,-1.46988 -1.39098,1.7548 -0.045,-0.59324 -0.0901,-1.18646 -0.13511,-1.77969 -0.0741,0.19587 -0.27654,0.78903 -0.22251,0.58762 0.12875,-0.39927 0.25751,-0.79854 0.38625,-1.19783 0.0769,0.0266 0.17498,0.13569 0.23077,0.0799 0.3477,-0.34726 0.39012,-0.99411 0.86401,-1.17333 0.29458,-0.11141 -0.0567,0.58577 -0.0849,0.87865 1.57095,-1.15341 -1.77719,2.96339 -1.48238,2.15659 1.00996,-2.76382 4.48339,-4.44388 -0.50175,-0.26197 -0.42606,0.3574 0.88614,-0.78183 0.99398,-1.30402 0.0573,-0.0619 0.11433,-0.12388 0.1715,-0.18582 -0.007,0.002 -0.0257,0.01 -0.0201,0.006 0.36307,-0.25332 1.44857,-1.01738 1.09366,-0.75439 -0.68395,0.50682 -1.49175,0.88644 -2.08115,1.48613 -0.12389,0.12608 0.36766,0.11415 0.54701,0.0749 0.55483,-0.12152 1.07012,-0.36416 1.60518,-0.54625 1.52377,-0.29406 -1.99712,0.32099 -1.60011,-0.009 0.44967,-0.37268 2.1281,-0.57865 1.58188,-0.81703 -0.73417,-0.32042 -1.57134,0.44151 -2.38285,0.46746 -0.17447,0.006 0.1823,-0.27637 0.29353,-0.40066 0.13649,-0.15251 0.2979,-0.28441 0.44685,-0.42663 0.61486,-1.71724 0.32546,0.81453 1.98899,-1.30569 0.29591,-0.37716 -1.34329,0.29458 -2.09326,-0.0687 -0.0962,-0.0466 0.0995,-0.17835 0.1494,-0.26752 -0.13728,-0.075 -0.37647,-0.0812 -0.41183,-0.22481 -0.0273,-0.11061 0.42651,-0.14055 0.31186,-0.18117 -0.40655,-0.14409 -1.21041,0.22799 -1.29379,-0.16682 -0.079,-0.37352 1.47356,0.0325 1.20458,-0.25569 -0.33357,-0.35745 -3.95642,-0.17007 -0.0834,-0.27691 4.6631,-0.28365 -0.0262,0.12442 -1.10108,-0.51279 -0.62964,-0.37329 1.58639,0.24047 2.24229,-0.092 0.40348,-0.20453 -1.07989,-0.0128 -1.31949,-0.37575 -0.0103,-0.0158 1.30943,-0.2872 1.50281,-0.32743 0.27821,0.0129 0.72375,0.2745 0.8346,0.0384 0.10695,-0.22776 -0.39935,-0.34236 -0.63991,-0.45304 -0.56083,-0.25806 -1.29374,-0.24332 -1.74537,-0.6445 -0.20581,-0.18282 0.72687,0.0818 0.83871,-0.16089 0.38901,-0.844119 -2.44499,-0.61422 0.68873,-0.55705 0.6469,-0.58156 0.36118,-0.126378 -0.53236,-0.750449 -0.18348,-0.128154 -0.66094,-0.411002 -0.44591,-0.48651 0.36816,-0.129289 1.08484,0.596481 1.15317,0.23815 0.11289,-0.592127 -3.89643,-1.403621 0.7271,-0.236996 -3.28476,-1.702116 1.55247,0.905509 1.36075,0.08266 -0.20164,-0.865444 -1.72986,-0.765144 -2.56637,-1.197091 -0.11178,-0.05772 -0.38465,-0.285761 -0.2592,-0.261942 0.0446,0.0084 1.88285,0.707665 2.06351,0.776207 -0.27619,-0.139534 -0.60562,-0.213298 -0.82857,-0.418601 -0.0908,-0.08359 0.0548,-0.253752 -0.0116,-0.355041 -0.0705,-0.107479 -0.27242,-0.09141 -0.34903,-0.195217 -0.0362,-0.04897 0.20042,0.04042 0.19148,-0.01826 -0.0996,-0.652446 -1.51531,-1.350484 1.00806,0.382287 -1.9079,-2.347776 -0.36259,-0.268517 0.23192,-0.238522 0.29819,0.01504 -0.3274,-0.470087 -0.41307,-0.734341 -0.0163,-0.05006 0.10425,-0.09458 0.15293,-0.06795 0.56386,0.308579 1.015,1.278694 1.61523,1.03559 0.52014,-0.210666 -0.63798,-0.868135 -0.95697,-1.302202 0.29586,0.269276 0.96124,1.185407 0.88756,0.807827 -0.0939,-0.481127 -1.24981,-1.577413 -0.95812,-1.169484 0.38248,0.534937 0.81287,1.039424 1.23098,1.551102 0.0504,0.06159 0.21821,0.232259 0.1732,0.167268 -1.19182,-1.721004 -0.73602,-1.293693 -1.5536,-1.992334 0.0191,-0.151393 -0.0811,-0.371132 0.0572,-0.454179 0.12217,-0.07333 0.24864,0.145613 0.38709,0.187514 0.091,0.02753 0.23558,-0.05841 0.28666,0.0164 0.46347,0.678817 0.32037,2.097782 1.18778,2.143119 0.6047,0.03161 -1.91813,-4.225899 -0.0779,-1.000684 -0.38234,-2.647959 -0.21331,-0.519304 0.50277,0.09299 0.21572,0.18447 -0.0859,-0.540208 -0.0763,-0.811613 0.0296,-0.823317 0.38588,0.240302 0.48302,0.247256 0.19813,0.01418 0.15301,-0.338812 0.22952,-0.508219 0.5873,-2.735401 -0.22969,-0.58238 0.78706,-0.63638 0.25138,-0.01334 0.24841,-0.424026 0.45502,-0.556956 0.4472,-0.287737 1.30227,0.50937 1.52306,0.696282 0.1811,-0.288256 0.2027,-0.754879 0.54331,-0.864768 0.90185,-0.290948 0.90762,2.750796 1.69822,1.789364 2.17543,-2.645473 -0.54811,-0.742555 1.30192,-1.916949 0.2312,0.698166 0.0443,1.678299 0.69359,2.094495 0.40266,0.258066 0.45547,-0.808481 0.76329,-1.16074 0.21073,-0.241149 0.43696,-0.609335 0.77215,-0.596365 0.34432,0.01333 0.42365,0.558706 0.75201,0.655345 0.25484,0.07501 0.51358,-0.138188 0.77038,-0.20728 0.25944,0.143245 0.51889,0.286492 0.77835,0.429737 0.5833,-2.038319 2.29219,0.997729 2.47477,0.865832 0.67015,-0.484098 0.15313,-1.843097 0.9095,-2.202785 0.50668,-0.24093 0.45183,1.019547 0.90331,1.340734 0.24172,0.171962 0.6092,-0.03201 0.91381,-0.04802 -1.53859,-2.284174 1.40507,-2.132799 1.82516,-1.490777 0.43297,0.661692 0.11312,1.748922 0.79204,2.201101 0.51711,0.522286 1.0267,-2.279604 1.75183,-1.820675 0.60754,0.384517 0.60568,1.240269 0.90852,1.860404 3.10664,-3.947052 -1.47721,1.111467 1.92767,0.891208 0.9322,-0.06031 0.43907,-1.852446 1.21463,-2.333991 0.39977,-0.24822 0.55214,1.065499 1.01687,0.948463 2.34175,-0.589727 0.10782,-4.814712 2.07856,1.329365 0.0299,-0.0212 2.11631,-1.515423 2.20192,-1.523423 0.38915,-0.03637 0.6319,0.490317 1.01989,0.536059 0.36461,0.04299 0.69598,-0.356679 1.05666,-0.291255 2.49455,0.452488 -0.43731,1.223965 2.13792,0.252183 0.35367,0.419682 0.50442,1.395183 1.06099,1.259048 0.74148,-0.181363 0.66021,-1.311044 1.20204,-1.812573 0.88834,-0.822269 1.41105,-0.167955 2.34117,-0.113268 0.37381,0.02198 0.77112,-0.273944 1.11416,-0.135005 0.48577,0.196746 0.7488,0.694123 1.12321,1.041184 1.11082,1.123577 2.90971,-1.773526 3.64896,-1.398616 0.68356,0.346666 0.51735,1.471071 1.16293,1.875111 0.35811,0.224122 0.81177,-0.281935 1.23213,-0.376166 0.40372,-0.0905 0.82108,-0.11742 1.23162,-0.176131 0.42994,-0.553435 0.56907,-1.804454 1.28978,-1.660306 0.86397,0.172798 0.52303,1.686859 1.2388,2.166038 0.3808,0.25492 0.90048,-0.261382 1.32386,-0.45047 0.46955,-0.209699 0.90822,-0.475374 1.34348,-0.740778 0.47947,-0.292367 0.83982,-0.80604 1.39818,-0.930977 0.47065,-0.105309 0.94381,0.200912 1.41569,0.301369 0.47923,0.458712 0.74759,1.371072 1.43768,1.376137 0.68795,0.005 0.76461,-1.33047 1.45209,-1.35492 1.34824,-0.04795 1.72674,2.707981 3.04886,2.459381 4.13256,-0.777048 -1.03586,-3.306012 2.98216,-0.802233 2.01511,-1.876127 0.76238,-1.499832 3.1481,-1.175782 0.5543,0.07529 1.13149,0.324216 1.66948,0.179757 0.63804,-0.171321 1.01123,-0.832581 1.62631,-1.064723 2.03515,-0.768087 2.02736,0.261409 3.32392,1.681363 2.96468,-6.151622 0.0481,-2.501384 3.22681,-0.775237 0.49863,0.270775 1.00227,-0.626528 1.57923,-0.66419 0.55226,-0.03604 1.07167,0.266724 1.58528,0.457624 1.67136,0.621214 1.67236,0.794004 3.12184,1.871652 1.64517,0.733433 3.52153,-3.872379 4.55591,-3.238997 0.99851,0.611405 0.53306,2.484215 1.61058,2.967779 0.67766,0.304118 0.8054,-1.259999 1.47192,-1.584428 0.44493,-0.21656 1.00093,0.09145 1.50138,0.137192 1.38534,0.575798 1.78554,-2.216812 2.91658,-1.885374 0.84763,0.248382 0.67657,1.764558 1.51984,2.025311 0.59291,0.183342 0.82005,-1.037507 1.44036,-1.109955 0.45189,-0.05277 2.73949,1.659896 2.95195,1.809728 3.46699,-5.281391 -0.49722,-0.838787 2.88327,-0.976563 0.68188,-0.02779 0.88414,-1.006582 1.48938,-1.297995 0.44125,-0.212448 1.01425,-0.28156 1.48565,-0.134403 1.86389,0.58187 2.3571,2.775959 3.02522,4.100922 0.45071,-0.934261 0.42389,-2.245163 1.35211,-2.802782 0.52735,-0.316786 0.82015,1.039028 1.44243,1.124021 0.52793,0.07211 0.86848,-0.623893 1.38782,-0.737448 0.47388,-0.103621 0.97076,0.158185 1.45558,0.115717 1.80031,-0.157705 1.69307,-0.5915 2.9627,-1.88231 1.52042,0.375333 1.7623,2.247638 3.06637,2.812867 0.46109,0.199857 0.99994,-0.179773 1.49828,-0.27695 0.39037,-0.07612 2.62405,-0.515129 2.97974,-0.694152 0.55518,-0.279415 0.98277,-0.734953 1.47416,-1.102431 0.88697,0.444836 1.80054,1.185863 2.93655,0.736792 0.57833,-0.22862 0.81402,-1.254845 1.43011,-1.137466 0.75916,0.144635 0.6722,1.763572 1.44263,1.684783 5.18273,-0.530016 -1.55005,-3.56339 2.81924,-1.217824 0.46026,0.227811 0.88526,0.835544 1.3808,0.683434 0.67072,-0.205886 0.79286,-1.104416 1.33938,-1.518429 0.36437,-0.276041 0.9552,-0.774915 1.31078,-0.489227 0.7798,0.626575 0.38546,2.170375 1.31079,2.595649 0.59265,0.272376 0.8482,-0.938986 1.2723,-1.408479 0.42379,0.551859 0.84757,1.103718 1.27134,1.655577 0.0774,-0.06969 2.15157,-2.000579 2.42167,-2.013 0.48031,-0.02209 0.67984,0.848441 1.15734,0.795684 0.53467,-0.05908 0.64175,-0.879595 1.14752,-1.050344 1.0831,-0.365661 1.90916,1.221955 2.24487,1.632258 0.0918,-0.03193 1.91668,-0.724392 2.11183,-0.574033 0.5264,0.405585 0.27267,1.940992 0.90843,1.704233 0.85818,-0.31959 0.0982,-2.112564 0.96836,-2.403155 0.66675,-0.222655 0.46094,1.26891 0.90957,1.776036 0.18116,0.204788 0.55528,0.129118 0.83291,0.193676 0.30715,-0.164133 0.69205,-0.242311 0.92142,-0.492398 0.40697,-0.443738 0.33113,-1.713589 0.92521,-1.521065 0.74373,0.241019 0.27862,1.492519 0.76175,2.067755 0.18343,0.218398 0.71304,-0.32183 0.89121,-0.09974 1.49083,1.858429 -0.0971,3.761507 1.76662,0.1674 0.30137,-0.612447 0.27561,-2.177267 0.90409,-1.837342 0.84284,0.455871 -0.33054,2.369514 0.59784,2.64971 0.80857,0.244028 0.47943,-1.551758 1.01334,-2.163446 0.15286,-0.175143 0.45296,0.216945 0.69616,0.204948 1.38973,-0.06855 0.28322,-0.889094 1.43277,0.492527 0.19834,0.214606 0.3967,0.429211 0.59506,0.643815 0.33143,-0.531912 0.43225,-1.923012 0.99429,-1.595737 0.73369,0.42722 -0.0394,1.667278 0.3544,2.381071 0.13096,0.237339 0.53388,-0.24585 0.82225,-0.248478 1.81346,-0.01654 -0.041,1.877265 1.83153,-1.814616 0.81778,4.092543 -0.27927,1.885278 1.2843,1.345169 0.25587,-0.08838 0.51348,0.172429 0.77122,0.255993 0.21017,0.06813 0.50354,0.03132 0.63249,0.199094 0.27364,0.356015 0.0258,1.384215 0.47035,1.235726 0.64423,-0.215213 0.6112,-1.132749 0.9168,-1.699123 0.64028,-0.03576 0.0828,1.32587 0.60785,1.343555 0.33875,0.01141 0.49404,-0.428841 0.74106,-0.643261 -0.26338,1.253977 -1.72479,2.820535 -0.79014,3.761937 0.81581,0.82172 0.90593,-2.074279 1.50436,-3.04255 0.0556,-0.08999 0.21593,0.05626 0.32388,0.0844 0.0102,0.162783 -0.1089,0.388631 0.0307,0.488349 0.10812,0.0772 0.25959,-0.125453 0.31716,-0.239934 0.15311,-0.304424 0.15289,-0.660058 0.2915,-0.970347 0.13728,-0.307269 0.71943,-1.151391 0.53009,-0.868719 -1.98601,2.965034 -0.67788,1.229193 -1.9915,2.925009 0.4761,-0.671948 1.0416,-1.296586 1.4283,-2.015846 0.12289,-0.228598 -0.40217,0.351021 -0.61858,0.50973 -0.8034,0.589238 -2.82394,2.611678 -2.43949,1.733116 0.2289,-0.523109 4.13995,-3.061338 1.93477,-1.406776 2.22318,-1.825817 0.99676,-0.341247 0.72661,-0.332688 -0.0866,0.0027 0.091,-0.149904 0.17085,-0.181063 0.32194,-0.125645 1.34308,-0.357676 1.00449,-0.277642 -3.50641,0.828843 -2.79846,0.668423 -0.80882,0.357044 0.1999,-0.002 0.77546,-0.09398 0.59971,-0.006 -0.36018,0.180358 -3.20221,0.47392 -2.98437,0.534345 1.00358,0.278376 2.10103,-0.100339 3.14355,-0.0027 0.73066,0.06837 -1.47761,-0.02592 -2.20101,0.09097 -0.0938,0.01517 0.062,0.166458 0.0929,0.249688 0.35452,0.07437 0.76173,0.03593 1.06356,0.223114 0.30842,0.191269 -0.93915,0.389155 -0.81774,0.568629 0.18473,0.273013 1.27399,0.17166 0.97799,0.341607 -0.49443,0.283873 -3.3802,-0.0671 -3.73153,-0.09855 0.28049,1.018174 1.94041,0.238198 2.48935,0.884164 0.1072,0.12615 -0.43479,0.0202 -0.4858,0.17348 -0.0544,0.16343 0.32892,0.27739 0.28082,0.44249 -0.0344,0.11793 -0.25012,-0.0793 -0.37472,-0.12015 -0.3037,-0.0997 -0.60676,-0.20098 -0.91016,-0.30147 6.33214,2.1868 3.04949,1.25566 0.94434,-0.1533 -0.12548,-0.084 0.51898,0.0981 0.4633,-0.0355 -0.18237,-0.437471 -1.12105,-0.668973 -0.93941,-1.10671 0.15584,-0.375591 0.84825,0.212771 1.23013,0.406026 0.41017,0.207565 0.74565,0.521662 1.11846,0.782494 -2.65054,-3.848922 -0.43069,-0.713623 -0.34204,-0.526151 0.0451,0.09529 -0.19554,-0.104545 -0.28381,-0.169061 -0.10729,-0.07841 -0.30271,-0.384395 -0.30062,-0.258049 0.01,0.602885 0.66899,1.270771 0.32579,1.783661 -0.25633,0.38304 -0.49291,-0.77711 -0.73936,-1.165648 -0.19603,-0.258559 -0.24638,-0.775386 -0.5881,-0.775679 -0.30093,-2.59e-4 -0.12424,0.575305 -0.3337,0.774887 -0.3497,0.33318 -1.44201,0.23797 -1.77849,0.37295 -2.17854,0.874 -0.16609,1.032 -2.57066,0.43031 -0.47439,0.31469 -0.92367,1.22367 -1.42317,0.9441 -0.92033,-0.51514 -0.80145,-1.90466 -1.5572,-2.612318 -1.64301,-1.538447 -2.60525,0.620166 -3.46102,1.371968 -0.61656,0.54165 -1.14094,1.28716 -1.95484,1.51625 -0.68395,0.19253 -1.40443,-0.24867 -2.10665,-0.37303 -0.68419,-0.2875 -3.64465,-1.679501 -4.53466,-1.47063 -0.96263,0.22592 -1.4321,1.40192 -2.39033,1.64331 -0.81881,0.20625 -1.66103,-0.34915 -2.50723,-0.40958 -2.62725,-0.1876 -2.84004,0.0917 -5.40013,0.73814 -3.89028,1.45876 -1.77153,1.30918 -5.7807,0.23398 -0.99536,-0.26694 -1.99827,-1.00683 -2.99915,-0.75809 -1.26608,0.31467 -1.7712,2.40737 -3.07351,2.26733 -7.92391,-0.85197 1.6141,-6.949381 -6.53231,-0.14273 -8.83543,-3.793506 1.79603,-0.21328 -7.38105,-0.10509 -1.42868,0.0168 -2.604,-1.33929 -4.0328,-1.34177 -1.44002,-0.003 -2.64264,1.18154 -4.07394,1.32767 -10.69975,1.09237 2.55015,-2.8369 -8.43822,1.00286 -1.46685,-0.71552 -2.74176,-2.15098 -4.40054,-2.14653 -1.68566,0.005 -2.82057,1.88671 -4.47804,2.17033 -1.53253,0.26227 -3.08136,-0.43884 -4.62867,-0.61197 -1.53862,-0.17216 -3.07706,-0.42333 -4.62692,-0.42363 -13.91203,-0.003 4.66869,1.07769 -8.98534,0.10574 -4.3118,0.82214 -8.45883,0.59805 -12.76315,-0.0617 -1.35211,-0.20723 -2.67,-0.86836 -4.03337,-0.73845 -1.39192,0.13265 -2.5646,1.03801 -3.87474,1.49203 -1.22978,0.42618 -2.49318,0.76453 -3.73977,1.14679 -3.06637,0.96283 -4.5732,-2.38578 -7.11373,-2.63706 -1.1768,-0.1164 -2.12492,1.14674 -3.30738,1.19292 -1.10219,0.0431 -2.05543,-0.80605 -3.14892,-0.9407 -6.88598,-0.84795 0.94317,1.64676 -5.71989,-0.84775 -0.8608,0.32352 -1.66489,1.10705 -2.5824,0.97058 -0.99823,-0.14846 -1.40666,-1.54447 -2.40138,-1.71184 -2.94887,-0.49614 -1.54896,2.26819 -4.35934,2.00051 -6.04366,-0.57565 1.53122,-2.72515 -3.8394,-0.80231 -4.03449,1.76092 0.58934,0.37676 -3.33134,-0.87152 -0.52701,-0.16778 -0.96129,0.70521 -1.51579,0.65253 -0.53901,-0.0512 -0.75465,-0.81996 -1.28585,-0.91869 -0.64405,-0.11968 -2.12205,1.0481 -2.47586,1.29055 -0.98439,0.19289 -1.31903,0.56927 -1.7218,-0.65744 -0.1774,-0.54025 0.42544,-1.55701 -0.16943,-1.68643 -0.61692,-0.1342 -0.71175,0.97553 -1.14859,1.3997 -0.33255,0.32292 -0.81371,1.15096 -1.14061,0.82316 -0.4386,-0.43976 0.12015,-1.19075 0.18021,-1.78614 0.0628,-0.40272 0.31595,-0.81869 0.1885,-1.208176 -0.1123,-0.343181 -1.21339,0.198541 -1.15211,-0.15548 0.0917,-0.529536 0.54116,-0.948951 0.80476,-1.426738 0.13617,-0.246792 0.53036,-0.499886 0.39451,-0.746834 -0.11218,-0.203904 -0.36917,0.304896 -0.55375,0.457345 -0.26811,0.254519 -0.53621,0.509036 -0.80431,0.763557 0.1036,0.08097 0.34223,0.120974 0.31082,0.242939 -0.19712,0.765351 -1.13202,0.776313 -0.26233,1.514407 0.70092,0.59488 2.58286,0.74825 2.28412,1.5831 -0.34339,0.95962 -2.10176,0.56273 -3.15263,0.84409 5.63797,4.91123 2.14815,1.23156 0.64057,1.65287 -0.37252,0.1041 0.16929,0.74402 0.026,1.07829 -0.60681,1.41583 -1.40196,1.58234 -2.7666,0.54996 -0.50616,-0.38293 -0.70214,-1.01997 -1.0532,-1.52996 0.69088,9.32722 -0.13835,0.40641 0.40579,1.08058 2.78827,3.45463 -3.14742,4.13221 0.9988,-1.23293 0.60285,-0.78009 0.66373,2.06898 0.10045,2.8739 -0.32264,0.46105 -1.05955,-0.49753 -1.58934,-0.74631 -10.56421,-9.391642 -9.98086,-4.12462 -3.04032,-13.829954 0.21501,-0.300655 0.0368,-0.898566 0.40642,-1.013716 0.28835,-0.08983 0.61244,0.6174 0.36034,0.774844 -0.27573,0.172205 -0.53722,-0.411751 -0.86612,-0.458969 -0.27196,-0.03903 -0.5268,0.147449 -0.79019,0.221174 -0.72119,2.96363 0.37466,0.730962 -1.45504,1.346654 -0.35661,0.119994 -0.50757,0.523549 -0.79245,0.755177 -0.29293,0.238168 -0.77539,0.321263 -0.93571,0.649918 -0.29621,0.607255 0.36309,1.840652 -0.34363,1.972792 -0.86658,0.162039 -1.38726,-1.012964 -2.08089,-1.519447 -0.51167,-0.04486 -1.11479,-0.407938 -1.53504,-0.134592 -0.43026,0.279855 -0.35303,0.923659 -0.41946,1.405866 -0.0858,0.623855 0.64296,1.821196 -0.0342,1.886404 -1.05083,0.101195 -1.5771,-1.652519 -2.63331,-1.629526 -2.430592,0.05291 -2.380301,5.315165 -2.440729,5.705555 0.950584,8.0517 -0.907174,3.34037 3.827849,8.26571 0.70984,0.73837 2.39742,3.74737 3.85603,4.1069 1.85748,0.45787 3.32043,-1.61402 4.22615,-2.48712 0.64655,0.53467 1.09536,1.78942 1.93963,1.60405 1.00916,-0.22156 0.91241,-1.78681 1.7055,-2.40436 2.42154,-1.88555 3.99695,2.49108 6.20336,1.01868 0.78485,-0.52375 0.88746,-1.58987 1.33118,-2.38479 0.60954,-0.0319 1.23481,-0.22692 1.82861,-0.0958 0.0499,0.011 3.73304,1.79792 3.93804,1.73226 0.0612,-0.0196 1.80833,-3.22115 1.94515,-3.30188 0.40408,-0.23844 0.94994,0.12123 1.42491,0.18185 1.40977,-2.38623 1.61346,0.15854 3.53793,-0.66509 0.40164,-0.17187 0.53898,-0.86422 0.97987,-0.82788 3.39371,0.27977 -0.36775,2.02859 2.44412,0.39233 2.1141,1.84987 0.63156,1.31681 2.37247,-0.24725 0.32563,-0.29255 0.774,-0.76994 1.19314,-0.60817 0.66456,0.25646 0.78694,1.13333 1.32187,1.57879 2.54242,2.11721 2.05613,-2.10119 2.61725,-3.99053 0.42748,0.51898 0.85497,1.03797 1.28245,1.55696 0.41972,-0.004 0.91151,-0.22876 1.25915,-0.0114 0.56832,0.35519 0.58923,1.25325 1.19738,1.54682 0.41653,0.20105 0.90667,-0.38016 1.37,-0.30754 0.5461,0.0856 0.92499,0.91225 1.45013,0.74953 0.79733,-0.24707 1.13123,-1.14979 1.69685,-1.72469 3.49394,3.60635 -0.56582,0.48329 3.43274,-0.25534 0.70099,-0.12949 1.09501,0.86151 1.71701,1.187 0.25864,0.13537 3.75594,1.36887 3.9432,1.30544 1.01008,-0.34203 1.5135,-1.41266 2.27025,-2.119 0.98903,0.35382 3.77153,1.4035 4.77706,1.5291 0.87814,0.10969 1.77961,-0.19324 2.65703,-0.0787 0.97664,0.12745 1.94892,1.20248 2.83109,0.79495 6.03971,-2.79003 -0.32594,-5.21994 5.7074,-1.75852 2.69304,1.71659 3.71564,-1.91903 5.75808,-1.93572 1.15862,-0.01 1.83006,1.38086 2.92176,1.73954 2.21655,0.72821 3.57638,-0.1003 5.5908,-0.74078 0.89929,-0.28594 1.80199,-0.5627 2.70299,-0.84404 2.35122,1.95662 2.25921,3.03008 5.37165,1.93629 0.9765,-0.34316 1.64013,-1.30071 2.65096,-1.54483 0.87421,-0.21112 1.79879,0.16131 2.69688,0.25334 3.53649,0.36238 1.95624,-0.04 5.23909,1.52803 5.45016,-4.08452 -0.66906,-0.71673 4.74837,0.31995 0.83785,0.16034 1.32424,-1.29586 2.17866,-1.25386 0.88913,0.0438 1.31845,1.16822 2.1482,1.46656 2.42076,0.87039 2.69468,-0.80129 3.96946,-2.35931 2.85587,1.98927 0.79074,1.22822 3.77563,1.03889 0.60214,-0.0383 1.30447,-0.23922 1.80925,0.0665 0.81056,0.49081 0.82353,2.12246 1.79267,2.11461 10.11438,-0.0818 -4.38888,-4.15724 3.71791,-1.53581 1.35167,-1.09789 2.50666,0.52694 3.7527,0.36764 0.71905,-0.0919 1.15062,-0.96826 1.87394,-1.02484 0.66995,-0.0523 1.18191,0.73095 1.85425,0.73323 8.18136,0.0278 -4.08734,-1.74084 3.7715,-0.40025 4.62713,-2.31905 -1.14684,-0.15199 3.63929,1.02305 0.68637,0.1685 1.10731,-0.87058 1.77947,-1.08239 0.29354,-0.0925 3.10267,-0.0276 3.40179,0.16457 0.71187,0.45729 1.05692,1.26999 1.58538,1.905 1.50305,-1.03728 1.28373,-1.32507 3.06184,-1.13349 0.47755,0.0514 0.91821,0.41715 1.39283,0.34623 0.52846,-0.079 0.91589,-0.51236 1.37893,-0.76049 1.56834,-0.84037 0.89871,-0.56903 2.55749,-0.98762 0.43813,0.86546 0.42185,2.11363 1.31439,2.59638 0.51349,0.27772 0.79333,-0.82218 1.14049,-1.2686 0.36661,-0.47143 0.38543,-1.61623 0.99586,-1.47854 0.81124,0.18297 0.52642,1.65252 1.27677,1.99111 0.4372,0.19729 0.76966,-0.57216 1.04109,-0.9452 0.36342,-0.49946 0.55633,-1.0884 0.8345,-1.6326 0.46684,0.92137 0.66418,2.00765 1.40051,2.76413 0.22547,0.23163 0.80622,-0.0814 0.92814,-0.37181 0.36906,-0.87923 -0.55659,-2.48768 0.40503,-2.80423 0.8599,-0.28308 0.50106,1.72155 1.18396,2.28114 0.29436,0.24121 0.21239,-0.69995 0.31858,-1.04993 0.18163,0.21187 0.36325,0.42373 0.54487,0.6356 1.08035,-1.63725 -1.74763,2.41284 1.02855,1.32147 0.67014,-0.26344 -0.6863,-2.20757 0.0126,-2.01829 2.21414,0.59971 -0.23828,4.57484 0.94592,0.54248 0.0455,-0.15496 0.2684,-0.20409 0.40259,-0.30615 0.17604,0.22254 0.2301,0.65423 0.52808,0.66754 0.29029,0.0131 0.36243,-0.42023 0.5578,-0.61898 0.14975,-0.15234 0.33845,-0.27138 0.47633,-0.433 0.6364,-0.74584 0.32176,-1.13836 1.38425,-0.3861 0.46246,0.32742 0.84346,0.74278 1.2652,1.11419 0.50836,0.10243 1.0188,0.41815 1.52509,0.30731 0.52369,-0.11466 0.88112,-0.57701 1.27121,-0.91953 0.82335,-0.72296 2.13317,-1.24198 2.36122,-2.26996 1.16562,-5.254024 1.51111,-10.688271 -3.52083,-14.274977 -0.71763,-0.511507 -1.78765,0.278167 -2.68148,0.41725 -2.38915,1.616808 -1.20658,1.548238 -3.54287,0.947772 -0.58564,-0.150521 -1.14746,-0.499011 -1.75397,-0.461267 -2.64632,0.164678 -1.48144,1.198796 -4.03103,1.675097 -0.68177,0.127363 -1.38233,-0.144462 -2.07347,-0.216694 -0.69535,-0.104734 -1.43261,-0.0709 -2.08606,-0.314202 -1.61825,-0.602542 -2.21486,-2.246374 -4.14864,-0.831895 -0.8259,0.604101 -1.00549,1.777482 -1.83585,2.376301 -2.26657,1.634499 -3.0802,-1.249484 -3.95591,-2.425421 -2.34772,-0.629575 -3.17652,1.758359 -5.56086,1.521735 -0.69121,-0.0686 -1.24797,-0.709385 -1.94308,-0.699862 -0.73522,0.01007 -1.33879,0.578779 -2.04902,0.754557 -0.72479,0.179382 -1.4846,0.202479 -2.2269,0.303719 -0.7734,-0.116159 -1.54682,-0.232318 -2.32024,-0.348479 -0.78148,0.350122 -1.47596,1.058358 -2.34448,1.050369 -0.87999,-0.008 -1.48183,-1.149578 -2.35977,-1.093645 -0.92569,0.05897 -1.45174,1.144604 -2.3398,1.39304 -1.71789,0.480581 -3.16655,-0.448412 -4.60094,-1.05214 -1.35863,-0.976568 -2.69232,-2.61314 -4.78218,-1.779983 -3.53692,1.410037 -1.08024,2.897233 -5.12804,2.262585 -0.96464,-0.151243 -1.78683,-0.740994 -2.70647,-1.049523 -0.89037,-0.298709 -1.81124,-0.513289 -2.71685,-0.769931 -0.93288,0.842002 -1.54507,2.193372 -2.79865,2.526005 -0.98007,0.260058 -1.86142,-0.795687 -2.84984,-1.027192 -1.14743,-0.268746 -4.85464,-0.452736 -5.98042,-0.444348 -1.06687,0.0079 -2.12926,0.210199 -3.19535,0.171403 -1.08238,-0.03939 -2.14666,-0.269916 -3.21999,-0.404875 -1.08532,0.559596 -2.0435,1.426075 -3.25596,1.678788 -1.04351,0.217495 -2.12118,-0.270275 -3.18857,-0.335557 -1.46775,-0.08976 -4.78783,0.08194 -6.23433,-0.387049 -1.10747,-0.359074 -1.86215,-1.59278 -3.03421,-1.650421 -1.12807,-0.05547 -2.0382,0.900568 -3.0573,1.350851 -0.98853,-0.56908 -1.8011,-1.681657 -2.96555,-1.707239 -1.13852,-0.02501 -1.83937,1.386598 -2.95941,1.577075 -0.95202,0.161907 -1.87943,-0.435411 -2.83249,-0.592077 -0.90095,-0.148101 -1.83788,-0.107297 -2.7232,-0.321181 -0.9206,-0.222402 -1.69999,-0.961549 -2.6514,-0.977252 -0.90544,-0.01494 -1.69302,0.594383 -2.53954,0.891574 -1.7543,0.271101 -3.18399,-0.84442 -4.82038,-1.040347 -1.46675,-0.175618 -3.2811,0.243686 -4.47211,1.053818 -0.84658,0.575843 -1.15525,2.098842 -2.20641,2.081889 -1.0835,-0.01747 -1.5102,-1.436001 -2.26531,-2.154001 -0.38069,0.137724 -3.71352,1.443005 -4.26279,1.258733 -0.9306,-0.312198 -1.18208,-1.652716 -2.13209,-1.910227 -0.69755,-0.18908 -1.3291,0.545726 -2.00699,0.788277 -2.50431,0.896059 -1.44931,0.875612 -3.79551,-0.464318 -0.17518,0.08971 -2.84433,1.570515 -3.28738,1.381816 -0.79074,-0.336775 -0.77789,-2.085849 -1.6227,-1.890981 -0.99347,0.22916 -0.28562,2.531591 -1.30886,2.567201 -4.03747,0.140511 0.68354,-5.638708 -2.67978,-0.709589 -9.30049,0.372098 -8.73084,12.522078 0.56966,12.149988 v 0 c 1.14891,0.5941 1.35138,0.94382 2.70942,0.73823 0.49648,-0.0751 0.94203,-0.61717 1.42007,-0.4723 0.6955,0.21077 0.89496,1.21089 1.60139,1.38799 1.18624,0.29735 2.83465,-1.82948 3.23192,-2.22767 0.64087,0.79289 0.88944,2.11745 1.92263,2.37866 0.76887,0.19439 1.08921,-1.13963 1.82071,-1.43225 0.59272,-0.23711 1.29171,-0.0312 1.93621,-0.0707 0.67605,-0.0414 1.38012,0.023 2.02409,-0.17151 3.55481,-1.0739 0.4735,-1.68893 4.20862,-0.1675 2.16471,0.1343 2.23177,0.30921 4.36017,-0.24852 0.74527,-0.19529 1.40182,-0.80191 2.17494,-0.75655 0.83312,0.0488 1.42333,0.90805 2.2499,1.01608 6.74721,0.8818 -2.49062,-2.3674 4.69961,0.55855 0.82994,-0.72342 1.37707,-1.93684 2.48984,-2.17022 0.92394,-0.19377 1.64946,0.92946 2.5771,1.10753 3.66206,0.70293 1.86086,-0.75264 5.51033,-0.89177 0.97991,-0.0373 1.89673,0.50728 2.87422,0.58094 0.99186,0.0748 1.98776,-0.0931 2.98164,-0.1396 3.67405,1.35657 2.40079,1.65251 6.07597,-0.13973 1.07915,-0.52626 1.90561,-1.88457 3.11955,-1.76971 1.32987,0.12581 1.76504,2.22068 3.09361,2.35751 9.49142,0.97748 -3.15351,-5.761728 6.40414,0.31605 1.09113,-0.64896 1.98253,-1.82398 3.27346,-1.94692 1.16117,-0.11058 2.13905,0.86521 3.19176,1.33123 1.2194,0.53978 4.39727,2.40468 6.08146,2.03522 1.13772,-0.24958 1.71338,-1.77754 2.8801,-1.85017 1.07738,-0.0671 1.87031,0.99746 2.80545,1.4962 0.92734,0.0622 1.858,0.0913 2.78205,0.18666 0.90703,0.0937 1.88358,0.74365 2.707,0.37999 1.19269,-0.52674 1.37745,-2.35946 2.63402,-2.73883 0.89027,-0.26877 1.56064,1.19006 2.49724,1.18971 5.46648,-0.002 -0.65251,-3.54285 4.7856,0.60631 0.76194,-0.13094 1.57299,-0.11184 2.28578,-0.39287 0.85297,-0.33628 1.39762,-1.53043 2.31757,-1.422 1.0505,0.12384 1.31206,1.78998 2.35248,1.97251 0.87424,0.15338 1.47505,-1.11694 2.36441,-1.14497 6.2469,-0.19693 -1.5332,2.94392 4.71217,-0.1736 0.76285,0.115 1.55479,0.12057 2.28857,0.34498 0.65506,0.20032 3.45478,1.82508 4.31804,1.72512 0.765,-0.0886 1.16822,-1.07728 1.93195,-1.17479 4.55525,-0.58153 -0.7107,2.95094 3.82226,-0.89851 0.63332,-0.24192 1.22355,-0.82762 1.89997,-0.72578 4.53495,0.68271 -0.40601,2.00512 3.98289,1.5744 5.39617,-0.5296 -1.70123,-0.69459 3.89486,-1.87264 0.68341,-0.14387 1.37416,0.25623 2.06124,0.38435 0.68348,0.56103 1.36695,1.12204 2.05043,1.68308 0.59418,-0.67556 0.89033,-2.30666 1.78252,-2.02667 9.97965,3.13198 -5.68164,4.68555 2.7926,0.57217 3.18921,-1.54802 -0.0573,2.56996 0.97919,1.20063 -2.1204,2.37498 -4.39984,6.43717 -6.06698,-2.87145 -0.6008,-3.354584 -0.0514,-6.96032 1.2739,-10.132452 2.42348,-5.800521 3.36694,1.873854 4.67246,0.748545 0.61812,-0.532797 -0.22544,-1.547984 -0.33815,-2.321975 -0.0399,-0.419666 -0.20102,-1.673559 -0.11987,-1.258997 0.25931,1.324651 0.64869,2.646693 0.65503,3.992815 0.003,0.720272 -0.2195,-1.473821 -0.64599,-2.076808 -0.14897,-0.210631 -0.0675,0.728168 -0.33637,0.687886 -1.32624,-0.198703 0.31443,-1.679226 -0.96093,-0.26099 -0.22725,-0.253927 -0.3704,-0.601139 -0.68178,-0.761778 -0.0752,-0.03881 -1.12152,0.247224 -1.14412,0.322465 -0.6432,2.140221 0.43253,3.253316 -0.78675,1.487947 -0.23664,-0.342611 -0.47738,-0.682786 -0.71607,-1.024179 -0.0754,0.452044 3e-5,0.949295 -0.22622,1.356137 -0.0795,0.143008 -0.97976,-0.144296 -1.01877,-0.172956 -0.27454,-0.201707 -0.35652,-0.806128 -0.69704,-0.728291 -0.60035,0.137238 -0.20778,1.621871 -1.32167,1.202897 -2.46709,-4.917518 0.0852,-0.838776 -1.58101,1.877968 -0.35334,0.576051 -0.46739,-1.350767 -1.05389,-1.731347 -0.29007,-0.188227 -0.61702,0.513246 -0.95852,0.425493 -0.9151,-0.235133 -1.08433,-1.648068 -2.13938,-1.738692 -0.33839,0.869934 -0.0299,2.448006 -1.01515,2.609802 -0.89612,0.147162 -0.49371,-1.788829 -1.2649,-2.235373 -0.42088,-0.243697 -0.7353,0.671092 -1.21156,0.801433 -0.43166,0.118136 -0.89897,-0.149697 -1.34614,-0.101443 -4.01273,0.433014 1.23483,0.516162 -2.85635,0.331865 -0.53449,0.284906 -0.98739,0.822424 -1.60347,0.854715 -0.60568,0.03175 -1.07842,-0.532815 -1.6627,-0.683536 -0.55626,-0.143492 -1.14898,-0.112211 -1.72047,-0.189183 -0.5884,-0.07925 -1.24333,-0.554338 -1.75805,-0.27933 -0.86078,0.459894 -0.82154,2.246755 -1.81387,2.18774 -1.05593,-0.0628 -1.21205,-1.602488 -1.81808,-2.403735 -3.03668,0.07524 -1.53087,-0.436711 -3.77934,2.754049 -0.98863,0.135698 -0.9904,-1.692659 -1.82919,-2.194717 -1.07278,-0.642119 -2.8927,0.455511 -3.74799,0.696156 -0.62194,0.174997 -1.27411,0.23988 -1.91118,0.35982 -3.84554,1.847007 -0.036,0.715065 -3.8456,-0.538742 -0.57157,-0.188111 -1.19384,0.243602 -1.80059,0.246543 -0.61247,0.0029 -1.20945,-0.192254 -1.82064,-0.228987 -0.62627,-0.03764 -3.22067,0.04013 -3.82119,0.05497 -0.67206,0.291938 -1.28363,0.763048 -2.01619,0.875813 -0.38557,0.05936 -3.9055,-0.521349 -4.2465,-0.583885 -0.74207,-0.136086 -1.51301,-0.715957 -2.2153,-0.456058 -1.00055,0.37028 -1.26579,1.77906 -2.27881,2.119217 -0.78842,0.264745 -1.63339,-0.354202 -2.4501,-0.531303 -0.85871,-0.159114 -1.71432,-0.333244 -2.57613,-0.477347 -0.88897,-0.148642 -1.82614,-0.115912 -2.67531,-0.400734 -0.98437,-0.330159 -1.75975,-1.751357 -2.74217,-1.416332 -1.37424,0.468642 -1.32123,2.649065 -2.63394,3.249678 -0.15522,0.07101 -5.28918,-1.656141 -5.39955,-1.692611 -0.27602,0.04158 -5.25354,0.805003 -5.5106,0.788745 -0.98587,-0.06236 -1.86816,-0.762068 -2.8559,-0.734536 -0.99885,0.02784 -1.85012,0.752279 -2.83771,0.893236 -0.55792,0.07964 -5.17273,-0.205303 -5.73425,-0.236622 -0.93916,-0.300268 -1.82378,-0.88711 -2.81749,-0.900808 -0.96804,-0.01334 -1.80958,0.674385 -2.7641,0.823873 -0.89447,0.140085 -1.83817,-0.156108 -2.72145,0.03523 -0.92001,0.199294 -1.62533,1.042177 -2.56742,1.110447 -0.40319,0.02923 -4.09628,-1.414822 -4.50907,-1.571388 -4.77238,1.675357 0.85804,0.425836 -3.74421,-2.463063 -0.0841,-0.05277 -3.59959,1.982428 -3.65743,1.991538 -0.56936,0.08967 -1.07984,-0.458745 -1.65734,-0.466964 -0.58353,-0.0083 -1.12728,0.279545 -1.69092,0.419317 -0.0836,-0.09735 -2.15219,-2.862647 -2.96819,-2.674659 -0.0794,0.01828 -2.45668,2.772917 -3.19282,2.550763 -3.49405,-1.054428 0.56984,-3.231231 -2.94925,-0.690922 -0.50517,-0.269941 -0.97646,-0.603259 -1.51552,-0.80982 -0.75091,-0.287734 -2.45859,-0.684261 -3.27678,-0.236239 -0.65502,0.358675 -0.82483,1.290743 -1.52201,1.573573 -1.2126,0.49192 -2.91716,-1.305459 -3.44455,-1.717348 -0.48154,0.49437 -0.72825,1.417288 -1.44464,1.483108 -1.0776,0.09901 -2.11713,-2.512667 -3.48721,-0.704146 -0.58633,0.773977 0.0951,2.354415 -0.84605,2.724121 -1.27775,0.501971 -1.78071,-3.009282 -3.56601,-1.988743 -0.29884,0.643474 -0.27934,1.523988 -0.89656,1.93042 -0.44546,0.293326 -1.06831,-0.320484 -1.61339,-0.277652 -5.82044,0.457373 3.24862,0.484929 -2.64635,1.451421 -3.38169,0.554431 -0.2223,-2.053669 -2.90861,0.829553 -1.10935,0.730343 -1.37191,1.316464 -2.82586,0.731116 -0.59991,-0.241525 -0.9803,-1.336185 -1.57464,-1.083157 -0.76172,0.324286 -0.3265,1.629553 -0.94291,2.15495 -0.72591,0.618723 -1.95473,-1.312592 -2.02255,-1.396103 -0.18995,-0.234258 -1.23811,-1.846628 -0.79236,0.517351 0.0314,0.167165 0.29772,-0.217231 0.47671,-0.255373 0.73562,-0.156756 1.98438,-0.980008 2.23765,-0.323045 4.95241,12.846773 -9.58854,-5.274918 3.57621,9.045423 -0.56262,1.11986 -0.78323,2.45082 -1.68787,3.3596 -0.46294,0.46504 -1.35571,0.52931 -2.01451,0.35965 -0.41473,-0.10681 -1.05298,-0.96153 -0.63112,-1.041 0.46777,-0.0881 0.91253,1.41666 0.96425,0.97825 0.36614,-3.10364 -1.7626,-1.61792 -0.40854,-2.45032 2.74447,0.31704 -3.29769,-0.17417 0.6741,-1.57573 0.57432,-0.20267 0.73754,1.02862 1.32995,1.18051 0.12999,0.0333 1.93954,-2.41673 2.72445,-0.98134 0.35541,-0.0505 0.70741,-0.17358 1.06622,-0.15164 1.39532,0.0853 1.25634,0.71012 2.69779,0.0426 0.56704,-0.26261 1.09837,-0.62903 1.4979,-1.08413 1.84945,-2.10668 5.76451,-3.89551 5.21246,-6.559479 -0.64485,-3.11169 -5.23068,-4.099152 -7.846,-6.148728 -0.57985,-0.514766 -1.18251,-1.00846 -1.73955,-1.544298 -0.30978,-0.298014 -0.41913,-1.037243 -0.85715,-0.953635 -0.54504,0.104034 -0.36958,1.179466 -0.91277,1.291473 -0.45774,0.09439 -0.5821,-1.039813 -1.02309,-0.892294 -0.61021,0.204129 -0.32187,1.580192 -0.97047,1.55918 -0.80251,-0.02599 -1.08296,-1.095501 -1.62444,-1.643251 -0.84332,1.174559 -1.31159,2.688521 -3.27156,2.503969 -1.34476,-0.126622 -2.89594,-1.984095 -3.87021,-1.118521 -0.9252,0.822002 1.502,2.132661 1.3984,3.3146 -0.10418,1.188563 -4.13991,-0.821792 -3.49688,1.537214 3.29921,10.39102 -0.76715,-4.937489 -0.80528,5.1404 -0.003,0.71846 1.38175,0.8481 1.65267,1.52157 0.24751,0.61536 -0.35817,1.30598 -0.25411,1.95537 0.45932,2.86602 2.71283,0.8576 4.87913,0.23327 -1.68032,4.00603 -0.88251,0.79302 -0.60921,3.58411 0.0637,0.65018 -0.48198,1.4534 -0.0339,1.95828 0.39099,0.44058 1.3158,-0.20242 1.84785,0.0857 3.11313,1.68563 -2.20172,1.74432 2.93623,1.08971 0.4322,0.25608 0.82602,0.5785 1.29662,0.76826 1.2215,0.49256 2.15427,0.25547 3.22139,1.13805 0.57136,0.47255 0.73801,1.30193 1.36344,1.71193 1.48107,0.97094 2.37769,0.0292 3.61164,-0.60115 2.1573,0.65928 1.06101,0.66138 3.28719,-0.0989 0.71582,0.17883 0.88546,1.52859 1.61621,1.4121 0.89975,-0.14344 0.86164,-1.74461 1.74764,-1.94835 5.15923,-1.18631 -2.25966,5.34147 3.5427,-0.77016 0.64158,0.23847 1.24441,0.60083 1.92477,0.7154 0.66151,0.1114 1.45462,-0.39297 2.01644,-0.0517 0.98051,0.59562 0.98868,2.39106 2.14438,2.57921 1.00014,0.16282 1.44698,-1.3328 2.28887,-1.85747 1.88834,-1.17681 2.88609,-1.18474 5.04002,-1.62161 3.7692,-0.23413 1.86061,-0.35375 5.72031,0.42624 1.08359,-0.0365 2.05052,-0.8293 3.13448,-0.80357 1.16335,0.0276 2.17018,0.9501 3.33388,0.95715 1.20251,0.008 2.27141,-1.02014 3.46862,-0.91593 1.3259,0.11541 2.4225,1.02281 3.63376,1.53422 1.25262,-0.0335 2.5322,0.14081 3.75783,-0.10042 2.90969,-0.57272 4.7605,-2.39279 7.90213,-2.26876 1.4546,0.0574 2.71796,1.18394 4.17386,1.18876 1.47762,0.005 2.834,-0.77392 4.251,-1.16089 1.4548,0.0443 2.9096,0.0887 4.36441,0.13286 1.4993,-0.0683 7.53929,-0.33787 8.99763,-0.42615 1.54279,-0.0935 3.08906,-0.16353 4.62439,-0.33183 1.54714,-0.1696 3.06905,-0.85603 4.6155,-0.68099 1.6359,0.18517 2.94686,1.51455 4.57968,1.72175 1.45062,0.18407 2.89746,-0.39275 4.34619,-0.58911 4.84609,0.24183 3.70219,0.4408 8.44177,-0.3242 1.37385,-0.22177 2.70422,-0.87937 4.09557,-0.79043 1.42276,0.0911 2.6171,1.18243 4.03655,1.3103 9.30206,0.838 -1.57134,-2.6861 7.33339,0.76099 6.04101,-2.68221 0.5823,-1.10832 6.41287,-0.59153 4.98104,0.4415 1.12865,-1.46232 6.04381,0.3782 1.03995,0.38941 1.8255,1.39457 2.94008,1.51466 0.99646,0.10736 1.90068,-0.59379 2.85102,-0.8907 0.91911,-0.72119 1.55301,-2.22133 2.75734,-2.16359 1.24346,0.0595 1.57007,1.86593 2.65927,2.42331 2.63735,1.34959 2.58833,-0.53865 4.91568,-0.9096 1.49625,-0.23848 3.01753,1.13883 4.54964,0.20509 4.03712,-0.85346 0.231,-0.42718 4.11387,0.24664 4.72467,0.81993 -1.00834,-0.64926 3.54943,-0.8254 0.0544,-0.002 3.04216,1.32093 3.10473,1.3485 2.05758,0.17641 1.05643,-0.10791 2.97007,0.94746 0.51237,0.0462 0.90992,-0.61273 1.42131,-0.55813 0.62433,0.0666 0.99711,0.85818 1.62499,0.88331 0.55606,0.0222 0.96861,-0.50674 1.45291,-0.76011 0.47828,0.0928 0.95655,0.18554 1.43483,0.27831 0.4153,-0.22579 0.94193,-0.33193 1.24588,-0.67735 1.07031,-1.21627 0.37393,-1.81139 1.65455,-2.79598 0.94574,-0.72711 2.85607,-0.25455 3.93422,-0.83035 1.17866,-0.19251 2.2171,-0.20122 3.17816,-0.98037 0.36171,-0.29323 0.49007,-0.76737 0.77893,-1.12297 0.71278,-0.87752 1.72288,-1.54378 1.85505,-2.72643 0.82747,-2.43043 -0.27473,1.44272 -0.36911,-1.68946 -0.006,-0.19776 0.58396,-0.054 0.58174,-0.2519 -0.003,-0.27688 -0.6274,-0.35071 -0.59162,-0.62564 0.0369,-0.28301 0.60891,-0.25587 0.73987,-0.51398 0.087,-0.17141 -0.13857,-0.35632 -0.20787,-0.53447 0.10307,-0.19631 0.15628,-0.42267 0.3092,-0.58893 0.1667,-0.18125 0.71118,-0.20028 0.62174,-0.42328 -0.16036,-0.39986 -0.78636,-0.46355 -1.10213,-0.7746 -0.1342,-0.13218 -0.21205,-0.32948 -0.20251,-0.51049 0.0456,-0.864339 1.23208,-0.948654 1.84505,-1.197347 -0.28562,-0.232668 -0.69926,-0.377766 -0.85681,-0.698008 -0.16083,-0.326883 0.44375,-1.307669 -0.0581,-1.631017 -0.55465,-0.357316 -2.21777,0.01279 -1.9374,-0.55564 1.58092,-3.205285 4.01444,0.260461 2.09059,-2.032435 -0.30886,-2.79678 0.49375,1.935535 -1.76348,-1.396821 -0.23186,-0.342296 0.54456,-0.693439 0.55599,-1.097084 0.009,-0.330687 -0.4197,-0.555966 -0.5001,-0.878319 -0.49075,-1.967571 0.70745,-0.06019 -0.46292,-1.638623 -0.70112,0.138736 -1.38866,0.469722 -2.10334,0.416208 -0.25643,-0.01921 -0.44593,-0.369112 -0.40945,-0.604364 0.0889,-0.573504 0.65009,-1.021987 0.7503,-1.593901 0.0669,-0.381997 -0.29479,-0.746873 -0.27245,-1.133288 0.15547,-2.690149 1.93344,-2.674136 -2.56281,-0.409821 0.0302,-0.494984 0.15491,-0.992784 0.0905,-1.484949 -0.0458,-0.349421 -0.26197,-0.661502 -0.41422,-0.984164 -0.17543,-0.37181 -0.80794,-2.19671 -1.87324,-1.789148 -0.74744,0.285949 -0.81639,1.587945 -1.62064,1.66886 -0.53958,0.05429 -0.22252,-0.981482 -0.33379,-1.472224 -0.42112,-0.01594 -1.25461,-0.143096 -1.61127,0.227447 -0.59787,0.621161 -0.6517,1.752945 -1.47498,2.088374 -0.45609,0.185826 -0.0205,-1.003412 -0.35962,-1.340893 -0.20775,-0.206732 -0.60831,0.05002 -0.91246,0.07503 -0.19697,-0.440303 -0.39394,-0.880606 -0.59093,-1.320907 -0.69076,0.15042 -1.02553,0.322162 -1.71913,0.128594 -0.29452,-0.0822 -0.52061,-0.391328 -0.8279,-0.377024 -0.33226,0.01546 -0.53488,0.462834 -0.86749,0.455941 -0.1464,-0.003 -1.37069,-0.913383 -1.48833,-0.998488 -0.32746,0.196593 -0.68028,0.361168 -0.98239,0.589779 -0.3382,0.255906 -0.53122,0.686817 -0.92822,0.855925 -1.29757,0.552713 -1.34007,-1.82693 -1.4675,-2.002135 -0.39527,-0.543432 -1.61154,0.123806 -1.867,0.220753 -1.40011,-0.320601 -0.75034,0.04793 -1.60376,-1.506652 -0.32732,-0.159382 -0.66069,0.643898 -0.98308,0.476157 -0.4781,-0.248757 -0.32215,-1.708884 -0.72534,-1.365065 -0.82676,0.705014 -0.46192,2.099242 -1.12238,2.940712 -0.19351,0.24653 -0.61109,-0.228615 -0.91663,-0.342922 -0.79587,-1.226002 -0.36931,-1.41776 -1.68799,-1.059805 -0.33439,0.09077 -0.6526,0.5006 -0.96837,0.364326 -0.47999,-0.207146 -0.41791,-1.085887 -0.93641,-1.186341 -3.07547,-0.595816 0.82333,2.869556 -2.1012,-0.25557 -0.37266,0.521439 -0.64526,1.11743 -1.11798,1.564316 -0.25866,0.244521 -0.75579,0.695098 -1.00272,0.440438 -0.6477,-0.667977 -0.34351,-1.874071 -1.01519,-2.521522 -0.28425,-0.274006 -0.9301,0.121803 -1.13076,0.452965 -0.57552,0.949754 -0.0848,2.479163 -1.0355,3.12201 -0.5719,0.386675 -0.7194,-1.1282 -1.0791,-1.6923 -0.36841,0.02601 -0.73947,0.126412 -1.10522,0.07804 -0.39975,-0.05287 -0.8128,-0.592058 -1.14134,-0.375175 -0.35099,0.231688 -0.93496,3.166525 -2.30692,1.510069 -0.59615,-0.719774 -0.24017,-2.631268 -1.2074,-2.479528 -1.0951,0.171799 -0.8187,1.907735 -1.22806,2.861603 -0.42731,-0.928834 -0.47113,-2.11007 -1.28194,-2.7865 -0.36146,-0.301556 -0.90328,0.364623 -1.2821,0.647419 -0.49097,0.366528 -0.91962,0.807638 -1.29501,1.27646 -0.49603,0.61949 -0.48006,1.863771 -1.30595,1.97185 -1.1288,0.147715 -0.97026,-2.828216 -2.74784,-1.881169 -2.97445,-1.294748 0.13764,-0.336692 -2.84508,-0.06506 -0.48904,0.04453 -0.95965,-0.387009 -1.44005,-0.291463 -0.55999,0.111374 -0.89136,1.012688 -1.44128,0.864522 -0.7442,-0.200514 -0.71974,-1.540747 -1.48536,-1.653061 -0.65014,-0.09537 -0.979,0.813159 -1.4685,1.219738 -0.50062,-0.07851 -1.00156,-0.155385 -1.50187,-0.235545 -0.50338,-0.08065 -1.01752,-0.375091 -1.50919,-0.24688 -0.59965,0.156364 -0.93513,1.275917 -1.49916,1.031346 -0.90095,-0.390667 -0.64502,-1.980552 -1.5539,-2.355203 -0.97687,-0.402677 -1.63178,2.596854 -3.04587,0.933604 -3.39624,7.343841 0.52355,0.966807 -3.0602,-0.373175 -0.92798,-0.346984 -0.5859,1.947178 -1.43488,2.437299 -1.39082,0.80292 -3.09579,-4.732907 -4.36744,-2.645083 -2.04067,1.653262 -0.62704,0.821418 -2.86039,1.567225 -0.48644,0.162442 -0.92107,0.593147 -1.4356,0.544148 -0.55882,-0.05322 -0.87824,-0.891036 -1.43434,-0.817462 -3.26107,0.431443 0.41656,2.950706 -2.94455,-0.208172 -4.38844,-1.855129 2.88231,0.666466 -2.89109,3.204249 -0.94906,0.417169 -0.63219,-2.053846 -1.54141,-2.540883 -0.51319,-0.274908 -0.94662,0.668327 -1.4688,0.928392 -2.0317,1.011846 -1.41509,0.612164 -3.02488,-1.130241 -6.24613,3.243472 4.23922,-1.622395 -3.01997,-0.670857 -0.81003,0.10618 -0.64962,1.662331 -1.44705,1.83136 -0.64611,0.136952 -0.83696,-1.183852 -1.49938,-1.206809 -4.74902,-0.164587 1.65714,2.98082 -3.08675,0.176547 -2.10012,0.542337 -1.05565,0.591794 -3.12932,-0.209205 -0.64658,0.09966 -0.91762,1.029116 -1.56927,1.094858 -0.60699,0.06124 -1.02473,-0.846244 -1.63005,-0.772089 -3.58211,0.438831 0.43213,2.888234 -3.28765,-0.249265 -0.5442,0.163024 -1.0884,0.32605 -1.63259,0.489073 -0.55007,-0.231483 -1.05039,-0.763471 -1.65019,-0.69445 -4.6101,0.530485 1.52645,1.645327 -3.1438,2.388385 -0.60723,0.09661 -1.00795,-0.819724 -1.6241,-0.815453 -0.60472,0.0042 -1.04758,0.558407 -1.57137,0.837609 -0.51385,-0.119593 -1.07618,-0.124682 -1.54157,-0.358775 -0.43958,-0.221118 -2.2348,-1.967528 -2.89818,-2.029234 -0.5097,-0.04741 -0.878,0.549305 -1.3854,0.614518 -2.82891,0.363586 -0.0943,-1.643508 -2.82588,1.192743 -0.44743,0.05285 -0.94693,-0.04205 -1.34228,0.158566 -0.52448,0.266138 -0.76091,1.453982 -1.2735,1.168784 -0.87353,-0.486011 -0.33562,-2.172253 -1.25668,-2.576512 -0.61588,-0.270314 -0.67447,1.229669 -1.31396,1.448244 -0.60172,0.205661 -2.25119,-1.47418 -2.42823,-1.631909 -2.67938,0.04386 0.35436,-0.200637 -2.40772,0.747376 -0.37632,0.129166 -0.8059,0.02723 -1.19948,0.10034 -0.41318,0.07675 -0.7859,0.349732 -1.20734,0.346727 -0.82414,-0.0059 -1.51721,-0.728837 -2.3565,-0.691353 -4.06795,-3.520195 1.4895,0.664306 -2.42346,-0.507326 -0.54665,-0.163675 -0.60449,-0.968823 -1.11293,-1.216152 -1.28284,-0.62403 -1.93734,1.406664 -2.26174,1.786449 -0.30916,0.361935 -0.72469,0.634097 -1.08703,0.951147 -3.4445,-4.369483 2.09755,1.878316 -2.07326,0.708062 -0.91224,-0.255958 -0.15021,-1.950486 -0.88405,-2.512732 -0.39306,-0.301155 -0.53549,1.032133 -1.04616,1.033851 -2.54383,0.0085 0.81927,-3.183864 -2.0458,0.301624 -1.07567,-1.744269 -0.34472,-1.450927 -1.97789,-1.726453 -0.3497,-0.05899 -0.76945,0.04179 -1.05295,-0.156337 -0.45573,-0.318509 -0.45918,-1.43638 -1.00583,-1.282504 -2.8916,0.813945 0.26749,3.596214 -2.315,0.678451 -1.12809,0.420154 -1.19839,0.339845 -2.14636,1.181298 -0.36137,0.320767 -0.48405,1.054781 -0.98517,1.049153 -0.50727,-0.0057 -0.63693,-0.730809 -0.98549,-1.071283 -0.36587,-0.357381 -1.39342,-1.16694 -1.80051,-1.49382 -2.73737,0.989894 1.03957,-0.450424 -1.81376,0.908428 -0.27633,0.131593 -0.57798,0.225855 -0.88472,0.272598 -0.2764,0.04212 -0.59979,-0.142316 -0.84036,-0.0097 -1.64544,0.907042 -0.002,1.205924 -1.6087,0.660345 -1.25878,-0.437215 -0.63872,-0.0443 -1.51316,-1.545432 -0.30297,-0.134328 -0.47218,0.769834 -0.7609,0.610973 -0.49452,-0.272089 -0.24553,-1.1741 -0.74445,-1.439243 -0.74056,-0.393568 -1.21323,2.43977 -1.50664,1.915452 -1.04199,-0.280698 -0.58252,-0.03157 -1.44293,-0.926621 -0.26393,-0.274561 -0.51133,-1.10155 -0.7814,-0.83212 -0.61126,0.609838 -0.14623,1.795572 -0.7777,2.387586 -0.57208,0.536333 -0.82075,-2.302861 -1.49907,-1.784571 -1.90433,-2.650556 0.3678,-0.0404 -1.36634,2.030132 -0.35227,0.42061 -0.555,-0.953883 -0.97708,-1.315524 -0.18913,-0.162043 -0.50173,-0.110973 -0.75259,-0.16646 -0.22941,0.140885 -0.45853,0.563152 -0.68821,0.422654 -0.51018,-0.312075 -0.64816,-0.958897 -0.97223,-1.438347 -0.18334,0.434605 -0.12778,1.048021 -0.55002,1.303812 -0.19774,0.119794 -1.26571,-1.046741 -1.62178,-0.232164 -0.25763,0.589408 0.35259,1.495075 -0.17798,1.899828 -1.41105,1.076435 -0.83751,-4.688307 -0.99322,0.65392 -0.96537,-0.501715 -0.9442,-0.43252 -1.88175,-1.237958 -0.41931,-0.360231 -1.01742,-1.635819 -1.20087,-1.13474 -0.32444,0.886093 1.18505,1.979269 0.60979,2.749088 -0.46672,0.624601 -1.14133,-2.584163 -2.02467,-1.29847 -0.25941,0.216255 -0.51108,0.440691 -0.77822,0.648765 -0.21141,0.164678 -0.38085,0.447011 -0.656404,0.468694 -0.372854,0.02934 -0.736913,-0.50292 -1.063028,-0.333385 -0.306416,0.159295 0.05887,0.703607 -0.150756,0.964394 -1.562149,1.943735 -0.139744,-1.767354 -0.980178,0.855947 -0.149745,0.09502 -0.315462,0.171518 -0.449232,0.285069 -0.08869,0.07531 -0.104299,0.216563 -0.208162,0.27296 -0.21036,0.114216 -0.464314,0.139118 -0.693464,0.21658 -0.192762,0.06515 -0.580485,0.02169 -0.571814,0.211135 0.07482,1.634063 1.805055,1.81839 -0.682445,1.056782 -0.04945,0.249416 0.01298,0.543156 -0.148386,0.748246 -0.134345,0.1707 -0.622175,0.03308 -0.6325,0.24391 -0.0216,0.440409 0.907888,0.914102 0.560962,1.216842 -0.424289,0.370242 -1.596963,-0.711786 -1.739027,-0.188839 -0.386653,1.423312 5.702116,2.580359 -1.508539,0.616454 0.589176,0.537577 1.391408,0.931203 1.767528,1.612729 0.118568,0.214832 -0.495541,0.162941 -0.717546,0.289782 -0.364722,0.208376 -0.672654,0.598303 -0.982448,0.861154 -0.116338,0.09871 -0.363891,0.121858 -0.375207,0.267404 -0.02061,0.264751 0.197508,0.49853 0.296267,0.747795 -3.314723,-0.227783 -1.848141,-0.428803 -0.288587,0.908027 0.230279,0.1974 0.541421,0.501837 0.43188,0.773832 -0.09933,0.246656 -0.875454,-0.05515 -0.825669,0.203965 0.240071,1.249372 2.966809,0.948076 -0.670929,0.877207 -3.106027,0.812628 1.352532,-0.588049 1.411861,1.342586 0.02339,0.760921 -1.704887,-0.419109 -2.468057,-0.131917 -0.338522,0.127395 0.812479,0.514162 0.649337,0.816336 -0.769034,1.424365 -2.333108,-1.010503 -0.50317,1.180153 -0.07155,0.936899 0.118132,0.454499 -0.558792,1.158046 -0.20394,0.211952 -0.836144,0.476452 -0.593675,0.650372 0.762851,0.54718 2.614184,-1.1e-4 2.734426,0.88512 0.496263,3.65334 -4.709599,-1.364974 -1.688507,1.30334 -0.262525,0.31092 -0.529361,0.61875 -0.787566,0.93273 -1.582247,1.92399 0.697765,-1.15737 1.348994,1.30238 0.136217,0.51449 -1.737005,0.30616 -1.494774,0.78622 0.927499,1.83817 3.630523,-0.63223 1.1817,1.24003 -0.02517,0.20911 -0.294385,0.56922 -0.07551,0.62736 0.823835,0.21881 2.948475,-0.67559 2.571355,0.0355 -0.516835,0.97455 -2.306431,0.60929 -3.2537,1.25114 -0.26092,0.17678 1.053777,0.0864 0.895144,0.34694 -0.830266,1.3636 -4.420785,1.0808 0.850611,0.9128 -3.098952,2.12942 -0.73454,0.15892 1.839787,0.62477 0.390906,0.0708 -0.481368,0.59032 -0.768688,0.84518 -0.469358,0.41632 -1.164874,0.64245 -1.493416,1.1613 -0.218746,0.34547 1.044452,0.65176 0.423139,1.13525 3.527176,0.52357 0.937974,-0.43631 1.960349,1.57823 0.861184,1.69691 0.919948,-0.78156 0.958259,1.24828 0.007,0.3531 -0.470737,0.92497 -0.114912,1.05415 0.551043,0.20002 1.132479,-0.31949 1.698714,-0.47924 0.325005,0.0138 0.700778,-0.12033 0.975016,0.0414 0.814204,0.48008 -0.424576,2.38786 -0.371342,2.40992 0.689857,0.28601 1.381022,-1.76754 1.846576,-1.21713 3.642785,4.30669 -3.557054,1.57966 0.336877,2.84699 0.79799,-0.60588 1.361271,-1.79727 2.393988,-1.81762 0.6481,-0.0129 0.0172,1.26269 0.37334,1.76307 0.21585,0.3033 0.73879,0.25253 1.12102,0.33669 0.35132,0.0773 0.71416,0.1001 1.07187,0.14615 0.31753,0.041 0.68936,-0.0526 0.95374,0.11488 0.30663,0.19428 0.39949,0.57941 0.59923,0.8691 1.34089,-1.55612 0.0554,-0.52492 1.33952,-0.7918 0.26538,-0.0551 0.53975,-0.48744 0.74016,-0.31752 0.36568,0.31005 -0.0523,1.39469 0.43648,1.31514 1.6353,-0.2661 0.23465,-3.2295 1.26823,-0.35824 0.16933,0.16946 0.40261,0.29931 0.50798,0.50837 1.40825,2.79434 -0.8501,1.06578 1.41087,-1.12497 0.32509,-0.31501 0.0356,1.02251 0.44401,1.2395 0.52133,0.277 0.65249,-1.48869 1.30066,-1.15513 0.92862,1.36854 0.19986,0.97791 1.44384,0.3913 0.21367,-0.10075 0.45947,-0.23012 0.69299,-0.17937 1.43562,0.31194 0.17184,1.49147 1.43891,2.23625 0.3491,0.2052 0.59421,-0.53208 0.89132,-0.79813 0.25217,-0.14931 0.48118,-0.33896 0.7565,-0.44795 0.048,-0.019 1.64561,-0.34313 1.66227,-0.32411 0.51068,0.58312 0.0346,2.12219 0.84644,2.10994 0.8078,-0.0122 0.25223,-1.53477 0.73416,-2.13377 0.17203,-0.21383 0.56349,0.11379 0.84525,0.17069 0.28429,-0.14251 0.53012,-0.4079 0.85288,-0.42754 0.39204,-0.0239 1.34097,0.7332 1.82339,0.36261 0.45462,-0.34925 0.32291,-1.61398 0.87733,-1.42416 2.95792,1.01285 -0.41134,3.28151 1.9655,1.34356 0.30361,-0.42028 0.73869,-1.728 1.70808,-1.08325 0.42977,0.28586 0.48627,0.94083 0.95075,1.17586 0.88408,0.44731 1.49344,-1.56231 1.57652,-1.54499 0.62956,0.13118 0.56736,1.071 0.85105,1.6065 0.28695,-0.0491 0.57059,-0.11921 0.86082,-0.14748 0.28767,-0.028 0.70825,0.20219 0.86752,-0.0209 0.47479,-0.66503 -0.0108,-2.60771 0.77524,-2.28006 0.52109,0.21721 -0.0119,4.0735 1.8819,2.81941 0.39989,-0.26481 0.62078,-0.70531 0.93117,-1.05796 3.64232,2.83966 -1.73569,-0.82305 1.98727,-0.15577 0.56157,0.10066 0.42763,1.20094 0.99065,1.29446 0.4932,0.0819 0.70443,-0.66226 1.09934,-0.94725 1.40646,-1.015 0.94443,-0.7916 2.29256,0.23601 0.3988,-0.29655 0.70474,-0.7578 1.1964,-0.8896 1.7608,-0.472 0.72992,1.0122 2.5245,0.25109 0.52975,-0.22467 0.70333,-1.17976 1.27994,-1.10074 1.11727,0.15309 1.02785,2.31244 2.5704,2.03956 0.46073,-0.98772 0.52277,-3.32291 2.30571,-2.39356 0.44247,0.23063 0.66967,0.70915 1.04869,1.02165 0.31894,0.26295 0.62911,0.81709 1.03658,0.69762 2.98521,-0.87536 -0.70234,-1.99148 2.07214,-0.86324 1.47678,0.26003 0.74972,0.33258 2.17413,-0.27103 0.42982,0.0234 0.71069,0.68291 1.12731,0.5825 0.52631,-0.12688 0.64943,-1.40688 1.09451,-1.11805 0.81726,0.5304 0.20165,2.22679 1.13182,2.56285 0.67846,0.24512 0.68087,-1.18995 1.02131,-1.78492 9.8e-4,0.002 2.04668,2.24516 2.17901,2.21028 0.34908,-0.092 1.33088,-2.60253 2.22102,-2.56211 0.54105,0.0245 0.68069,0.82497 1.16774,1.044 0.36136,0.16249 0.80362,0.0155 1.20544,0.0232 0.41501,-0.5463 0.58138,-1.3751 1.24502,-1.63893 0.44634,-0.17744 0.84365,0.44872 1.28706,0.63232 0.41772,0.17298 0.90166,0.21113 1.29011,0.43487 0.47798,0.27533 0.70874,0.94796 1.26389,1.03625 0.46956,0.0747 0.82419,-0.44346 1.25263,-0.63605 0.40268,-0.181 0.82494,-0.32217 1.23743,-0.48327 0.4134,0.77648 0.33567,2.10457 1.24022,2.32942 0.71271,0.17713 0.71499,-1.2027 1.18834,-1.72579 0.32128,-0.35505 0.70039,-0.70508 1.16596,-0.87592 0.35922,-0.13184 0.77282,0.0186 1.15933,0.0226 0.80568,0.009 1.46928,-0.002 2.27382,-0.009 3.43606,0.87342 -1.29579,-0.41641 2.23102,0.85157 0.34207,0.12299 0.73041,0.10316 1.07537,0.21902 0.35735,0.12001 0.63438,0.46229 1.01397,0.48266 0.33725,0.0182 0.5893,-0.3679 0.92693,-0.37851 0.34167,-0.0107 0.6438,0.21276 0.9657,0.31914 2.9903,1.77688 -2.32596,-0.98003 2.02374,-2.81682 0.88195,-0.37242 0.23277,1.94399 0.95965,2.53691 0.35795,0.29199 0.75563,-0.54937 1.06378,-0.88636 0.42735,-0.46735 0.48316,-1.64957 1.12815,-1.51073 0.78255,0.16843 0.72461,1.32501 1.08691,1.98751 0.37725,0.49219 0.48005,1.44057 1.13174,1.47658 0.63611,0.0351 0.77264,-0.94354 1.23801,-1.34568 0.88514,-0.76487 2.50326,-1.66575 3.64671,-0.6921 0.49256,0.41941 0.75198,1.02432 1.12796,1.53648 0.39372,-0.58472 0.50488,-1.46446 1.18114,-1.75415 9.8e-4,-4.7e-4 1.73248,1.53527 1.91604,1.47303 0.53483,-0.18136 0.41165,-1.25187 0.97955,-1.29383 2.81399,-0.20786 -0.97478,3.35174 1.9708,-0.0176 1.58724,0.5467 0.80104,0.61784 2.0828,-1.0444 0.72874,0.16091 0.27429,1.74377 1.01417,1.85304 0.66233,0.0978 0.47182,-1.43439 1.13352,-1.53586 3.83795,-0.58851 -1.64974,3.74122 2.31427,0.0795 0.40193,0.78014 0.28884,2.17018 1.20579,2.34041 0.77142,0.1432 0.52382,-1.46676 1.1537,-1.90238 0.31296,-0.21644 0.74146,0.22983 1.11628,0.33247 0.36069,0.0988 0.72014,0.20629 1.08963,0.27164 1.7236,0.30484 0.58541,-0.29969 2.13532,0.98982 1.42985,-1.09449 0.52376,-0.81543 2.07975,-0.65096 0.33364,0.0352 0.72824,-0.11784 1.00556,0.0571 0.44701,0.28197 0.43949,1.17879 0.98048,1.19577 0.53066,0.0167 0.58046,-0.85287 1.01624,-1.13306 0.28227,-0.1815 0.67643,-0.11516 1.01465,-0.17274 3.93487,2.42489 -2.16676,-0.90549 2.04166,-0.18828 0.52294,0.0892 0.4656,1.08805 0.99261,1.15368 0.46273,0.0575 0.53435,-0.8828 1.00063,-0.9055 0.82551,-0.0402 0.95682,1.62168 1.77794,1.59705 0.29951,-0.19725 0.599,-0.3945 0.8985,-0.59175 0.28866,0.0367 0.61727,0.25064 0.86598,0.11039 0.43137,-0.24323 0.4279,-0.99664 0.9166,-1.11558 0.36703,-0.0893 0.5066,0.79026 0.86738,0.68141 2.80412,-0.84601 -0.54099,-1.81053 1.87641,-0.88065 0.30063,0.2972 0.47533,0.79074 0.9019,0.8916 1.20444,0.28478 0.64015,-1.15171 1.88927,-0.63439 0.40239,0.16665 0.58109,0.61299 0.86356,0.9258 1.3811,1.52946 0.63544,1.43005 1.94296,-0.92025 0.22943,0.0995 1.68817,0.77603 1.97736,0.7227 0.39683,-0.0732 0.56696,-0.70351 0.97034,-0.67386 0.42048,0.031 0.48839,0.82023 0.91011,0.81214 0.76243,-0.0147 0.90961,-1.54688 1.98326,-1.05352 1.2188,0.0641 0.62676,-0.0807 1.76519,0.47074 0.45401,0.0468 1.27238,-0.57338 1.78005,-0.27145 0.38819,0.23086 0.42123,0.80823 0.81056,1.03741 0.23231,0.13674 0.54816,-0.0509 0.82223,-0.0763 0.27494,-0.0311 0.55497,-0.0357 0.82482,-0.0936 0.28859,-0.0618 0.58351,-0.3974 0.84172,-0.2633 0.43183,0.22429 0.37209,0.97525 0.83638,1.13487 0.30573,0.1051 0.56521,-0.33808 0.73813,-0.59359 1.31862,-1.9484 0.41528,-3.261 1.37,1.44766 1.53592,0.89051 -0.12605,0.21825 1.44544,-1.27426 0.17864,-0.16967 0.45001,0.2533 0.70389,0.28532 0.24382,0.0308 0.5001,-0.18688 0.72951,-0.10462 0.30527,0.10948 0.40471,0.71991 0.71476,0.6226 0.45021,-0.14133 0.52824,-0.73047 0.79237,-1.09568 0.25554,-0.0931 0.51854,-0.17023 0.76663,-0.27913 0.26098,-0.11456 0.47428,-0.4441 0.75717,-0.3898 0.32522,0.0624 0.46166,0.44135 0.68673,0.667 0.29978,0.30059 0.93311,1.08563 1.44698,1.19993 0.27333,0.0609 0.55475,-0.0847 0.83214,-0.12708 2.16601,0.51847 -0.58576,0.14907 1.73335,-1.42766 0.26425,-0.17966 0.51532,0.37956 0.80143,0.52789 0.26288,0.13629 0.55884,0.20919 0.83512,0.3206 1.20271,0.48489 0.54324,0.48038 1.80162,0.0543 2.12489,0.48799 -0.16536,0.26996 1.96647,-1.61686 0.22994,-0.2035 0.75148,-0.11759 0.94726,0.11441 0.57571,0.68225 0.64372,1.63965 1.14802,2.36855 0.24714,0.3572 0.6317,0.97887 1.05563,0.81648 0.59958,-0.22965 0.62251,-1.05231 0.93375,-1.57846 0.7344,-0.94949 0.59238,-1.29399 1.8481,-1.29219 0.36785,5.2e-4 0.72384,0.2627 1.08375,0.19243 0.3951,-0.0771 0.63576,-0.48961 1.02039,-0.60325 1.62322,-0.47956 1.9446,1.92515 2.37609,2.68465 2.78482,-6.85088 -2.79373,5.64193 2.21389,0.66362 0.66147,-0.6576 -1.49946,-4.87956 1.21055,-3.69918 0.66347,0.28897 1.09367,1.44965 1.7758,1.20052 0.67194,-0.24542 0.23223,-1.31757 0.34835,-1.97635 0.47437,0.13435 0.94946,0.26654 1.42311,0.40305 0.52494,0.1513 1.18338,0.81922 1.57259,0.46038 0.48067,-0.44317 -0.1142,-1.2592 -0.0309,-1.8818 0.0417,-0.3116 0.0812,-0.97929 0.39866,-0.86691 3.6556,1.2943 5.43557,5.21905 1.28564,-1.2831 1.57179,0.3385 1.22204,0.62434 1.0432,-0.75657 -0.033,-0.25474 -0.35892,-0.80302 -0.0842,-0.76573 4.40741,0.59813 1.51978,1.91356 2.26716,0.51975 0.0714,-0.13307 0.22974,-0.20782 0.34459,-0.31172 -0.0196,-0.34394 -0.39653,-0.88559 -0.0589,-1.03183 0.41621,-0.18031 0.81774,0.40728 1.26382,0.50986 0.16273,0.0374 0.57493,0.0267 0.48963,-0.10668 -0.49838,-0.77942 -2.06491,-1.19069 -1.88865,-2.08117 0.20075,-1.01417 2.22779,1.73884 3.02214,1.33147 -0.0989,-0.35779 -0.20202,-0.71456 -0.29657,-1.07332 -0.0694,-0.26311 -0.33926,-0.55637 -0.19508,-0.79215 0.12078,-0.19753 0.68031,0.1375 0.73108,-0.0844 0.0831,-0.36296 -0.84209,-0.86473 -0.47812,-1.02149 2.59972,-1.11968 1.17118,1.69131 1.91959,-0.0941 -0.12357,-0.6627 -0.39509,-1.18537 0.11767,-1.79465 0.14717,-0.17488 0.42433,-0.20662 0.64037,-0.30271 0.31277,-0.13912 0.86569,-0.0909 0.94575,-0.4028 0.5501,-2.14407 -1.93349,-0.13693 0.23094,-1.56188 -3.24403,-4.52995 1.56538,2.9701 1.50399,-1.47964 -0.0118,-0.85353 -2.14238,-0.47328 -2.39143,-1.29531 -0.17406,-0.57449 1.3549,-0.2373 1.79474,-0.67412 0.18553,-0.18428 -0.40565,-0.33603 -0.60848,-0.50405 0.43887,-0.18478 0.87774,-0.36956 1.31662,-0.55436 1.45805,-2.19356 0.19416,0.34401 -2.6531,-1.48553 -0.39577,-0.25429 0.83165,-0.45868 1.19906,-0.74701 0.15351,-0.12048 0.22697,-0.30747 0.34044,-0.4612 0.35097,-0.19182 0.70195,-0.38366 1.05292,-0.57548 0.18223,-0.13141 0.29068,-0.33214 0.43602,-0.498208 -0.36123,-0.08095 -0.71337,-0.213074 -1.08368,-0.242878 -0.70822,-0.05701 -2.20343,0.637436 -2.13265,-0.01599 0.0783,-0.722111 1.55156,-0.355244 2.21495,-0.744003 0.31109,-0.182307 -1.34868,0.34288 -1.10082,0.09109 0.99726,-1.013041 4.86549,-0.761975 -1.28088,-0.61183 -2.67189,-9.872648 -17.78636,-6.382139 -15.11448,3.490499 z" />
  </g>
  <g
     inkscape:label="Button Border"
     id="layer3"
     inkscape:groupmode="layer">
    <path
       id="path1552"
       d="M 89.821429,92.857143 C 89.717833,84.042971 96.912428,76.875 105.53571,76.875"
       style="fill:none;stroke:#000000;stroke-width:1px;stroke-linecap:butt;stroke-linejoin:miter;stroke-opacity:1" />
    <path
       style="fill:none;stroke:#000000;stroke-width:1px;stroke-linecap:butt;stroke-linejoin:miter;stroke-opacity:1"
       d="M 104.5037,122.866 C 95.701922,122.38748 89.024559,114.73536 89.593848,106.1309"
       id="path1552-1" />
    <path
       id="path1552-1-4"
       d="m 295.50545,122.78365 c 9.01779,-0.47834 15.85902,-8.12755 15.27576,-16.72875"
       style="fill:none;stroke:#000000;stroke-width:1.012px;stroke-linecap:butt;stroke-linejoin:miter;stroke-opacity:1" />
    <path
       style="fill:none;stroke:#000000;stroke-width:1.01249px;stroke-linecap:butt;stroke-linejoin:miter;stroke-opacity:1"
       d="m 295.40348,76.427854 c 9.01779,0.478808 15.85902,8.1355 15.27576,16.745113"
       id="path1552-1-4-2" />
  </g>
  <g
     inkscape:label="guide lines"
     id="layer2"
     inkscape:groupmode="layer">
    <path
       id="path1409"
       d="M 21.960139,76.428572 H 391.31201"
       style="opacity:1;fill:none;stroke:url(#radialGradient1440);stroke-width:2.17061;stroke-linecap:round;stroke-linejoin:miter;stroke-miterlimit:4;stroke-dasharray:none;stroke-opacity:1" />
    <path
       style="opacity:1;fill:none;stroke:url(#radialGradient1440-8);stroke-width:2.17061;stroke-linecap:round;stroke-linejoin:miter;stroke-miterlimit:4;stroke-dasharray:none;stroke-opacity:1"
       d="M 23.181206,122.85714 H 392.53308"
       id="path1409-1" />
    <path
       style="opacity:1;fill:none;stroke:url(#radialGradient1440-4);stroke-width:1.35672;stroke-linecap:round;stroke-linejoin:miter;stroke-miterlimit:4;stroke-dasharray:none;stroke-opacity:1"
       d="M 310.63322,174.6484 310.85028,30.351598"
       id="path1409-7" />
    <path
       id="path1409-7-0"
       d="M 89.534324,171.21983 89.751384,26.923029"
       style="opacity:1;fill:none;stroke:url(#radialGradient1440-4-7);stroke-width:1.35672;stroke-linecap:round;stroke-linejoin:miter;stroke-miterlimit:4;stroke-dasharray:none;stroke-opacity:1" />
  </g>
</svg>
