<?xml version="1.0" encoding="UTF-8" standalone="no"?>
<svg
   xmlns:dc="http://purl.org/dc/elements/1.1/"
   xmlns:cc="http://creativecommons.org/ns#"
   xmlns:rdf="http://www.w3.org/1999/02/22-rdf-syntax-ns#"
   xmlns:svg="http://www.w3.org/2000/svg"
   xmlns="http://www.w3.org/2000/svg"
   id="svg8"
   version="1.1"
   viewBox="0 0 132.29166 52.916668"
   height="200"
   width="500">
  <defs
     id="defs2" />
  <metadata
     id="metadata5">
    <rdf:RDF>
      <cc:Work
         rdf:about="">
        <dc:format>image/svg+xml</dc:format>
        <dc:type
           rdf:resource="http://purl.org/dc/dcmitype/StillImage" />
        <dc:title></dc:title>
      </cc:Work>
    </rdf:RDF>
  </metadata>
  <g
     id="layer1">
    <path
       d="M 6.7884653,50.053022 C 6.987415,49.011403 7.4064216,48.026605 7.7304396,47.021149 9.0552221,42.910236 7.0001968,48.930252 8.5850062,44.347833 9.954493,40.37544 11.434836,36.442094 12.939762,32.519315 c 1.439557,-3.662547 3.1726,-7.198764 4.648246,-10.845312 1.014284,-2.614399 2.150464,-5.179029 3.22296,-7.769432 0.858546,-1.919479 1.834375,-3.790744 2.824309,-5.6468231 0.769963,-1.2792157 1.4548,-2.6737067 2.484401,-3.7716322 0.10984,-0.025053 0.242413,-0.1466125 0.329521,-0.075164 0.164079,0.1345838 0.489612,0.568684 0.27744,0.5730118 C 20.686856,5.1071674 14.645599,4.819797 8.6047253,4.7749563 8.481148,4.7740302 8.8613296,4.7886326 8.967345,4.8521379 c 0.224041,0.1342054 0.54497,0.5829509 0.6983587,0.7790873 0.9008733,1.3578699 1.3578113,2.9181615 1.7184983,4.4897628 0.452941,2.217227 0.493897,4.457081 0.241882,6.697511 -0.245146,2.73567 -0.891504,5.408291 -1.385585,8.104075 -0.487224,2.821528 -0.7470181,5.67384 -1.1082606,8.511872 -0.2902165,2.233496 -0.7827907,4.429574 -1.0387846,6.670473 -0.1608392,1.65014 -0.1730851,3.311031 0.00196,4.959411 1.9951122,7.815633 7.6199702,2.892825 19.6678292,2.543731 0.340156,-0.0099 0.376399,-0.567053 0.562425,-0.852004 0.206814,-0.316796 0.41072,-0.635478 0.616079,-0.953217 0.241827,-0.376888 0.523614,-0.730945 0.725477,-1.130662 0.630987,-1.249437 1.065358,-2.588824 1.604585,-3.880517 0.951743,-2.279851 1.969095,-4.529984 2.931903,-6.805165 1.633246,-3.984294 3.035533,-8.057211 4.326665,-12.163589 1.075439,-3.104328 1.968317,-6.263071 3.168269,-9.323744 0.614405,-1.332997 1.293257,-2.6892045 2.202278,-3.8537016 0.200509,-0.2568594 0.911389,-0.9421185 1.13774,-1.1651313 1.112581,-0.9084781 2.250585,-1.8044142 3.489013,-2.5333685 0.142681,0.00477 0.296079,-0.04015 0.428043,0.014314 0.159154,0.065686 0.571783,0.3251303 0.399618,0.3272742 C 43.414477,5.36253 37.473037,5.171791 31.53172,5.178253 c -0.188166,2.047e-4 0.371779,0.067376 0.549537,0.1290851 0.511051,0.1774116 0.658826,0.3279566 1.108085,0.6393934 1.400075,1.4533573 1.944307,3.4357204 2.512206,5.3184165 0.5861,2.351887 0.780822,4.776246 0.759007,7.193409 -0.102438,2.800087 -0.660934,5.556373 -1.327443,8.269451 -0.75288,2.700372 -1.15574,5.467135 -1.63962,8.221868 -0.40218,2.247874 -0.701898,4.513506 -0.911987,6.78719 -0.09063,1.56509 -0.121582,3.130677 -0.121682,4.698145 0.04492,0.649833 -0.141515,1.369558 0.03925,2.01091 1.920764,6.814767 14.793452,4.531813 19.741751,0.03997 0.186539,-0.189484 1.225573,-1.239748 1.358071,-1.397421 0.273437,-0.325387 0.51022,-0.679886 0.765739,-1.019521 0.917294,-1.219272 1.833322,-2.420059 2.690003,-3.683371 1.83043,-2.585471 2.868025,-5.527913 3.669159,-8.560842 0.497536,-1.947466 0.942814,-3.93968 1.114478,-5.947915 0.09976,-1.167099 0.108763,-2.340327 0.185672,-3.509153 0.227666,-3.02298 0.726008,-6.002827 1.413512,-8.951143 0.440084,-2.150761 1.287315,-4.165275 2.289937,-6.1048027 0.539409,-0.7623697 1.073484,-1.5558842 1.795698,-2.1592215 0.48863,-0.4106748 1.036164,-0.9798354 1.734796,-0.938176 0.157089,0.00937 0.614156,0.1173269 0.456801,0.1192274 -5.92885,0.071599 -11.858411,0.060045 -17.787617,0.090067 0.163383,0.00191 0.332039,-0.035467 0.490146,0.00575 1.319342,0.3439829 1.757018,2.1485534 2.125101,3.2254192 0.820018,2.9850696 1.105694,6.0698916 1.314442,9.1468826 0.152398,3.460046 0.152744,6.924196 0.121261,10.38669 -0.02119,0.541014 -0.04694,1.081868 -0.06356,1.623041 -0.05831,1.899539 0.01331,1.657056 -0.192852,3.566525 -0.185066,1.714074 -0.525426,3.376792 -0.90868,5.054843 -0.623702,2.380962 -1.183407,4.77768 -1.839759,7.150029 -0.248939,0.746024 -0.424569,1.514097 -0.645747,2.267855 -0.06842,0.233153 -0.277551,0.776983 -0.30743,1.025541 -0.03219,0.267803 -0.0149,0.539257 -0.02233,0.808886 6.30311,0.07003 12.609478,0.424413 18.909334,0.210085 0.317132,-0.0108 0.261556,-0.578228 0.393557,-0.866788 0.991701,-2.167935 1.983713,-4.311899 2.868086,-6.528126 0.26166,-0.738195 0.562753,-1.463574 0.784976,-2.214583 0.262607,-0.887479 0.438396,-1.798413 0.667793,-2.695051 0.247832,-0.968704 0.501192,-1.936039 0.763852,-2.900826 0.750202,-2.755609 1.580472,-5.47497 2.481215,-8.184406 1.314143,-4.226846 2.945775,-8.335544 4.703685,-12.393605 1.121178,-2.49113 2.348111,-4.929939 3.667699,-7.3216991 C 87.678528,6.8932165 88.172203,6.0090938 88.796784,5.2243497 88.979587,4.9946668 89.145542,4.737523 89.38731,4.571031 89.553762,4.4564059 89.777782,4.4665746 89.973018,4.4143466 84.02051,4.6232791 78.068001,4.8322116 72.115493,5.041144 72.246819,4.9346453 72.34862,4.6695312 72.509471,4.7216475 c 0.439981,0.1425567 0.976299,1.8249738 0.994706,1.8832856 0.654325,2.0726984 0.848378,4.2805249 1.143738,6.4215909 0.583809,5.29826 0.141362,10.600217 -0.541337,15.861172 -0.489323,4.057909 -1.217269,8.068884 -2.07686,12.062232 -0.541356,2.070817 -0.77092,4.201673 -1.000771,6.324084 -0.486526,8.611526 -1.321678,2.709582 18.595144,3.36341 0.07695,-0.35347 0.1255,-0.714336 0.230838,-1.060405 0.196461,-0.645451 1.210747,-3.139708 1.353048,-3.496892 0.369146,-0.926587 0.739169,-1.852825 1.107239,-2.77984 1.646824,-4.147645 1.074491,-2.69707 2.765366,-7.079731 2.85097,-7.285768 5.509708,-14.643517 8.170078,-22.000226 0.29782,-0.827642 0.60172,-1.653123 0.89346,-2.482928 0.23879,-0.679188 0.45402,-1.366593 0.69808,-2.0439045 0.53488,-1.4843614 1.17652,-2.9209698 1.63054,-4.4333992 0.21423,-0.4314593 0.49574,-2.2355022 0.87262,-2.4655807 0.0858,-0.052348 0.36989,0.1342663 0.26942,0.1351024 -6.16865,0.05133 -12.337723,0.011102 -18.506589,0.01665 0.09543,0.1509496 0.226258,0.2846557 0.286287,0.4528481 0.271621,0.7610234 0.459163,2.1290042 0.551849,2.8557934 0.310541,2.4351438 0.347996,4.8297945 0.33401,7.2813505 -0.111062,5.832307 -1.084612,11.583745 -1.938594,17.338051 -0.552074,4.176704 -1.069089,8.359303 -1.722361,12.52176 -0.26407,1.678771 -0.580186,3.388733 -0.375745,5.089845 0.229907,0.863304 0.329737,1.73876 0.459933,2.618171 6.273157,-0.122952 12.56126,0.08102 18.81947,-0.368855 0.33283,-0.02392 0.0654,-0.664956 0.12615,-0.993069 0.0794,-0.428892 0.1821,-0.853474 0.29359,-1.275157 0.58267,-2.203799 1.41283,-4.317573 2.21619,-6.447342 1.43129,-3.586822 2.99512,-7.121208 4.20566,-10.792762 0.68616,-2.081122 0.94213,-3.146316 1.5065,-5.244703 0.93887,-3.59277 1.63523,-7.242259 2.33474,-10.887135 0.55117,-2.671355 1.55244,-5.2223082 2.54657,-7.7537319 0.17136,-0.4019047 0.31804,-0.815253 0.51408,-1.2057145 0.0525,-0.1045202 0.66978,-1.3788958 1.12437,-1.3396592 0.223,0.019249 0.67278,0.4942197 0.449,0.4993047 -17.708,0.402394 -22.544284,-4.1411091 -17.56724,0.3353216 1.64419,3.4929362 2.14525,7.3593673 2.55978,11.1552653 0.24253,3.653016 0.52777,7.316485 0.57682,10.979191 0.0289,2.159413 -0.0784,3.722852 -0.18124,5.875189 -0.21039,4.279945 -1.03166,8.47289 -2.17654,12.589981 -0.38012,1.628987 -0.92291,3.215291 -1.25879,4.854445 -0.0489,0.130075 -0.12655,1.226818 -0.20466,1.267865 -0.0738,0.03879 -0.21763,-0.210381 -0.13424,-0.211143 18.84889,-0.172283 19.90911,6.191441 18.6861,-0.344339 0.15314,-1.773261 0.74647,-3.477659 1.26527,-5.170186 0.13754,-0.430051 0.29786,-0.853474 0.41263,-1.290158 0.14894,-0.566738 0.24046,-1.14721 0.37765,-1.716905 0.70682,-2.935029 1.54219,-5.845935 2.37902,-8.745802 0.54135,-1.973469 1.28883,-3.891775 1.83474,-5.863193 0.51932,-1.875446 0.89263,-3.807762 1.33107,-5.70368 0.80798,-2.952987 1.44221,-5.949039 2.22151,-8.909196 0.40342,-1.461725 0.90972,-2.90684 1.0486,-4.4240849 0.0688,-0.8611293 0.0565,-1.7185963 0.21073,-2.5691891 0.13567,-0.8186661 0.31301,-1.6248462 0.44442,-2.445699 0.11769,-0.3883107 0.002,-0.2789783 0.22778,-0.4186976 -6.24701,0.057042 -12.49507,0.043876 -18.74105,0.1711243 -0.0952,0.00193 0.15502,0.1213488 0.19742,0.2066616 0.13602,0.2736778 0.43914,1.4568164 0.47745,1.5965098 0.74046,3.5330979 1.06094,7.1332889 1.24867,10.7325839 0.14351,3.744107 0.041,7.488613 -0.0386,11.232288 -0.0474,2.724999 -0.20985,5.445704 -0.47443,8.157853 -0.19054,1.885323 -0.49226,3.756506 -0.71716,5.63745 -0.0873,0.751692 -0.30425,1.481818 -0.45914,2.225223 -0.16222,0.861393 -0.15298,1.811726 -0.59365,2.589908 -0.18681,0.613323 -0.6304,1.065951 -0.89987,1.649635 0,0 18.52364,0.886314 18.52364,0.886314 v 0 c 0.36191,-0.604729 0.692,-1.213455 0.88314,-1.89793 0.22371,-0.927645 0.35026,-1.875094 0.61841,-2.790478 0.22276,-0.84473 0.32592,-1.712278 0.24792,-2.586972 -0.0729,-1.851141 -0.0938,-3.704293 0.0712,-5.55222 0.23609,-2.773373 0.41397,-5.543613 0.19009,-8.327355 -0.11683,-3.76681 -0.28942,-7.532248 -0.44435,-11.297628 -0.12823,-3.621405 -0.23768,-7.2442629 -0.18574,-10.8684153 0.0288,-0.7188446 0.0293,-1.0310559 0.0942,-1.7061008 0.0175,-0.1823498 0.24971,-0.540249 0.0666,-0.5455211 -35.450599,-1.0206744 -18.51096,-6.1631732 -18.77423,0.5987685 -0.14592,0.8276971 -0.41098,1.628844 -0.48635,2.4697764 -0.11834,0.9004646 -0.0842,1.7974317 -0.10159,2.703758 -0.096,1.4050593 -0.15578,2.8140473 -0.3937,4.2056763 -0.46739,2.979727 -0.98144,5.949864 -1.589,8.905082 -0.25421,1.219077 -0.51049,2.524702 -0.82674,3.72941 -0.1663,0.633515 -0.38342,1.253019 -0.54778,1.88704 -0.50354,1.942309 -0.84293,3.92816 -1.37582,5.863873 -0.80198,2.940518 -1.71249,5.833025 -2.90453,8.642757 -0.23742,0.559596 -0.51529,1.101278 -0.75962,1.657887 -0.18518,0.421857 -0.35247,0.851345 -0.5287,1.27702 -0.80017,1.834538 -1.43557,3.713255 -1.97303,5.641128 -1.76958,6.630127 -0.43698,0.86677 18.61193,1.119169 0.10041,0.0013 -0.0867,-0.182629 -0.111,-0.280062 -0.0925,-0.370707 0.0117,-0.760587 0.003,-1.134144 0.10974,-1.606897 0.33813,-3.201691 0.43691,-4.809233 0.29322,-4.2745 0.73462,-8.540708 0.77076,-12.829982 0.15684,-5.683171 0.33058,-11.371841 -0.0236,-17.052531 -0.22635,-3.932304 -0.48032,-7.8670031 -1.0104,-11.7723001 -1.2925,-7.2147932 0.0422,-1.8366391 -18.93654,-1.9093145 -0.25956,-0.00101 -0.18651,0.4846563 -0.26851,0.7309291 -0.33357,1.0019361 -0.61753,2.0221768 -1.01781,3.0019823 -0.98415,2.6601282 -2.093837,5.3039952 -2.524354,8.1259892 -0.42047,3.584891 -0.620649,7.196578 -1.224994,10.757687 -0.186745,0.833305 -0.347363,1.672898 -0.560234,2.499914 -1.181891,4.591714 -2.982518,9.000154 -5.051711,13.256786 -1.091596,2.165165 -2.177986,4.329314 -3.468634,6.385579 -0.258257,0.411453 -0.504939,0.83439 -0.81615,1.207405 -0.151754,0.181888 -0.372115,0.293224 -0.558173,0.439838 6.142101,0.02291 12.2842,0.04582 18.4263,0.06873 -0.0493,0.180639 -0.0204,0.404847 -0.1479,0.541919 -0.0665,0.07147 -0.0753,-0.180813 -0.10033,-0.275185 -0.14306,-0.539422 -0.2181,-1.100227 -0.459,-1.612043 -0.53047,-1.471575 -0.3691,-3.055138 -0.51032,-4.589706 -0.13116,-4.153524 0.17683,-8.295092 0.58521,-12.427481 0.59857,-5.822455 1.2576,-11.638453 1.89232,-17.45694 0.37609,-3.815412 0.57373,-7.6472996 1.08757,-11.4484432 C 101.47428,2.001934 95.22962,1.6618501 88.980231,1.6579663 c -0.168392,-1.046e-4 -0.0074,0.3374088 -0.02995,0.5042859 -0.12296,0.9106693 -0.483626,1.7797609 -0.619895,2.6887184 -0.472463,2.954732 -0.393512,5.9951234 -1.121375,8.9187124 -0.555506,2.584682 -0.753597,3.694337 -1.496457,6.311467 -1.507043,5.309389 -3.487613,10.480996 -5.748494,15.511691 -1.649081,3.322455 -3.29217,6.573509 -5.435869,9.612304 -0.395264,0.560303 -2.027114,2.709199 -2.695821,3.336214 -0.21725,0.203702 -0.506207,0.313891 -0.75931,0.470836 21.092975,1.149745 18.316123,6.718141 18.175322,-1.675074 -0.08557,-2.043996 0.01521,-4.083854 0.147037,-6.124406 0.362908,-4.066558 1.08204,-8.090381 1.363075,-12.165062 0.162846,-2.575828 0.38005,-5.148503 0.440505,-7.729714 0.06573,-2.806317 0.0048,-2.785896 -0.03516,-5.599979 -0.01318,-0.928865 -0.01476,-1.857859 -0.02215,-2.786788 0.06361,-3.137168 0.08077,-1.921067 -0.0073,-4.8035614 C 91.087406,6.601289 91.130443,4.9658195 90.792438,3.4629653 90.695071,3.0300287 90.533168,2.6141797 90.403532,2.189787 84.171089,2.3919682 77.929248,2.3989333 71.706201,2.7963307 c -0.2335,0.014912 -0.227232,0.4091897 -0.34788,0.6096637 -0.710715,1.180973 -1.471144,2.334228 -2.098661,3.5638348 -0.430578,0.9857894 -0.725178,1.9892785 -1.094854,2.9991233 -0.518046,1.4151485 -0.550852,1.4175895 -1.126061,2.8745785 -0.2129,0.53927 -0.419278,1.081091 -0.628915,1.621637 -1.484373,4.136677 -2.820061,8.329106 -3.969443,12.571552 -0.695103,2.728865 -1.327685,5.490398 -2.159455,8.181919 -0.756581,2.448232 -1.059686,3.122348 -2.047656,5.436947 -0.303918,0.71202 -0.621924,1.417944 -0.932889,2.126916 -0.898763,1.761051 -1.800532,3.470439 -3.11369,4.968865 -0.292534,0.333806 -0.600028,0.660614 -0.952138,0.930841 -0.22134,0.169865 -0.499081,0.2496 -0.74862,0.374399 6.070433,0.221115 12.140869,0.442227 18.211305,0.663339 -0.06921,0.160695 -0.04948,0.407239 -0.207626,0.482082 -0.119457,0.05653 0.0084,-0.264571 0.02506,-0.395682 0.119038,-0.9398 0.279778,-1.876928 0.430874,-2.812206 0.457708,-2.401456 0.867153,-4.81402 1.244814,-7.229044 0.558973,-3.498696 1.050574,-7.034395 1.11943,-10.579118 -0.04208,-3.491067 -0.04454,-6.983329 -0.176681,-10.472562 C 73.021836,15.536001 72.813387,12.364297 72.320563,9.2198096 71.997182,7.289698 71.63212,5.3932468 70.192763,3.9560195 58.830108,3.8728615 54.741247,-0.02926813 49.144059,5.7423867 c -0.708062,0.8597474 -1.278374,1.7539919 -1.570281,2.845862 -0.694204,2.1113863 -1.27254,4.2599453 -1.754675,6.4297083 -0.105402,0.463286 -0.233764,0.921941 -0.316208,1.38986 -0.454174,2.577768 -0.451306,5.228931 -0.746506,7.824321 -0.282226,3.066178 -0.79115,6.127002 -1.495754,9.124652 -0.805098,2.816162 -1.924817,5.530914 -3.611903,7.944596 -1.549006,2.03839 -3.228779,4.108982 -5.549951,5.296993 -6.408909,2.244291 1.102747,-0.472014 17.206937,0.248176 0.275124,0.0123 -0.112366,0.552403 -0.262158,0.783503 -0.275023,0.42431 -0.333636,-0.397449 -0.344246,-0.507746 -0.02201,-0.228849 -0.01447,-0.459584 -0.02172,-0.689375 -0.0039,-1.537149 -0.04149,-3.074431 -0.01969,-4.611102 -5.29e-4,-2.202254 0.09045,-4.403193 0.454571,-6.580421 0.430582,-2.71922 0.963485,-5.417089 1.548481,-8.107365 0.646235,-2.855846 1.337702,-5.723725 1.469269,-8.660707 0.01992,-2.568661 -0.02175,-5.163812 -0.586328,-7.681191 C 53.026213,8.6701102 52.356251,6.5541537 51.316724,4.6253127 51.157061,4.3662205 51.021926,4.0903083 50.837736,3.8480362 50.814585,3.8175681 49.945116,2.9031033 49.829951,2.8979963 38.053866,2.3757918 35.355264,-1.531672 30.186541,3.2157678 c -1.073054,0.9608827 -2.212123,1.8552974 -3.174883,2.9335126 -1.44985,1.7619855 -2.136394,3.6085967 -2.84106,5.7639646 -0.951223,3.136443 -1.945616,6.260546 -2.798518,9.425813 -1.071278,4.049615 -2.255909,8.077713 -3.782305,11.982122 -1.672612,3.954359 -3.244108,8.129106 -6.487802,11.094849 -0.300318,0.197731 -0.564931,0.46522 -0.900954,0.593191 -0.2045737,0.07791 -0.8755501,-0.0058 -0.6567204,2.9e-5 5.9181934,0.157279 11.8392074,0.224734 17.7550354,0.454366 0.161068,0.0062 -0.273349,0.248653 -0.43161,0.218062 -0.269753,-0.05214 -0.467256,-0.746236 -0.524304,-0.894091 -0.315136,-1.499333 -0.270318,-3.012326 -0.170845,-4.534775 0.106613,-2.20585 0.302875,-4.406072 0.469187,-6.607689 0.373597,-3.26455 -0.06637,0.327208 0.429763,-2.97793 0.272518,-1.815465 0.459121,-3.645437 0.823635,-5.447329 0.427953,-2.738537 1.072618,-5.438746 1.407265,-8.192969 0.299186,-2.413704 0.477745,-4.837642 0.07135,-7.2540997 C 29.084565,8.030675 28.676569,6.2907772 27.968375,4.6669904 27.756333,4.1981011 27.072202,2.8407979 27.06314,2.8402182 7.6088165,1.5957882 11.206651,-3.1501185 7.7300197,3.3726927 7.0492701,4.7044509 6.3568981,6.0315673 5.7315494,7.3903421 4.7434928,9.2961419 3.717327,11.19309 3.0463839,13.241295 2.0910757,15.830284 1.1498828,18.4256 0.26002973,21.037788 -1.0617967,24.67177 -2.4487202,28.281817 -3.8045035,31.903191 c -1.5390799,3.97669 -3.1868017,7.912814 -5.0508997,11.749513 -0.9247259,1.869477 -1.7828528,3.809487 -2.9534538,5.537438 0,0 18.5973223,0.86288 18.5973223,0.86288 z"
       id="path837"
       style="fill:#ebb800;fill-opacity:0.895582;stroke-width:1.32292;stroke-linecap:round;stroke-opacity:0.7;paint-order:stroke fill markers" />
    <path
       d="m 22.090461,23.418247 c 0.428264,2.350339 -0.170957,4.69928 -0.692333,6.982976 -0.787925,2.945489 -1.705997,5.854498 -2.580788,8.775096 -0.336348,0.932937 -0.589644,1.902534 -0.955663,2.825078 -0.210746,0.531183 -0.486267,1.0345 -0.69447,1.568649 -0.228151,0.722582 -0.482344,1.444053 -0.832976,2.117187 -0.193067,0.462325 -0.239566,0.972715 -0.392031,1.445395 -0.114551,0.355135 -0.286154,0.686925 -0.393082,1.049655 -0.147235,0.468673 -0.218307,0.980985 -0.388593,1.442151 -0.06634,0.179668 -0.182927,0.337183 -0.258209,0.513292 -0.05228,0.04219 -0.09387,0.103151 -0.156826,0.126577 -0.107796,0.04011 -0.838086,-0.136075 -0.936878,-0.183208 -0.102464,-0.04889 -0.179427,-0.139142 -0.26914,-0.208714 6.044933,0.01791 12.089866,0.03584 18.134799,0.05376 -0.276696,-0.09963 -0.592537,0.110297 -0.863799,0.0615 -0.206539,-0.03715 -0.380841,-0.176411 -0.572148,-0.26267 -0.563737,-0.344993 -1.125236,-0.665668 -1.59829,-1.139412 -0.68871,-0.800087 -0.803957,-1.840921 -0.916628,-2.850134 -0.09162,-1.504252 -0.15485,-3.005014 -0.28194,-4.507463 -0.133334,-1.572557 -0.28557,-3.143046 -0.405394,-4.716878 -0.112369,-1.374735 -0.154673,-2.751963 -0.112715,-4.130305 0.01598,-1.10395 0.05453,-2.191255 0.189642,-3.288241 0.15108,-1.276075 0.323596,-2.555103 0.604182,-3.811259 0.05959,-0.232086 0.134506,-0.460768 0.178758,-0.696259 0.05123,-0.272622 0.06571,-0.550973 0.107161,-0.825252 0.179438,-1.187355 0.398423,-2.36632 0.548262,-3.557947 0.21998,-1.915141 0.546137,-3.814161 0.982959,-5.691298 0.389942,-1.667406 1.104347,-3.201472 1.886667,-4.7130627 C 31.951154,8.7269464 32.756705,7.8425465 33.183203,6.723527 33.563594,5.9722442 33.700722,5.1432338 33.787212,4.314957 33.880258,3.4077304 33.580887,2.6617617 33.091464,1.9274544 32.648167,1.1302353 32.017329,0.59025083 31.170597,0.27586228 24.74493,-1.3162555 30.466485,0.06934932 12.071126,0.16936185 11.812268,0.17076916 10.787143,0.74280884 10.534508,0.89969064 9.6259202,1.2590335 8.7598312,1.6687193 7.934376,2.1959312 7.4025084,2.357864 7.0038248,2.763816 6.5331712,3.0283838 6.3887516,3.1095659 6.2206843,3.1419575 6.0746806,3.2202548 5.7696075,3.3838567 5.4827492,3.6268562 5.212035,3.8387512 4.3525781,4.2685832 3.7205369,5.0154654 3.1899405,5.7987816 2.6696249,6.5509629 2.2547835,7.3650233 1.9987123,8.2403168 1.7727691,9.0924969 1.7206474,9.9736253 1.6918589,10.850495 c -0.1102146,0.70195 -0.2366248,1.392964 -0.4174569,2.079117 -0.029938,0.13243 -0.044367,0.26935 -0.089814,0.39729 -0.065175,0.183476 -0.19160858,0.340952 -0.25853101,0.523798 -0.11524367,0.314871 -0.13445765,0.631546 -0.31760888,0.914013 -0.25544896,0.54942 -0.32211877,1.155927 -0.38147561,1.751662 0,0 18.5838155,0.240157 18.5838155,0.240157 v 0 c 0.07763,-0.452648 0.213191,-0.880122 0.398369,-1.301065 0.183933,-0.692962 0.465453,-1.354365 0.595759,-2.062369 0.202336,-0.816175 0.33615,-1.6484 0.428398,-2.484009 0.02076,-0.68626 0.04245,-1.3850048 0.283631,-2.0363847 0.294745,-0.6501714 0.638067,-1.2820782 1.13297,-1.805293 0.590367,-0.5570599 1.241513,-0.9917539 1.923349,-1.4289183 0.878342,-0.4924531 1.743434,-1.0019686 2.640256,-1.4617895 0.894593,-0.3879178 1.808318,-0.7244358 2.710042,-1.0943924 0.393999,-0.076957 0.717701,-0.1592871 1.119894,-0.1398799 0.123047,0.00594 0.492429,0.015952 0.369239,0.015648 C 12.050234,2.91276 6.4576192,3.2162218 12.7919,2.8800962 c 0.586396,-0.034572 1.247615,-0.1716733 1.75919,0.1840026 0.12142,0.1618173 0.207863,0.3507277 0.34558,0.4989227 0.206124,0.2218068 0.310384,0.043651 0.336304,0.5354881 -0.08976,0.6709872 -0.284192,1.3033361 -0.565377,1.9204198 -0.427254,0.9974258 -0.922058,1.9664484 -1.332636,2.9719077 -0.734256,1.6759789 -1.553926,3.3289289 -1.868374,5.1510729 -0.349576,1.913332 -0.592225,3.84361 -0.900221,5.763765 -0.345559,1.65709 -0.6645579,3.319574 -1.042607,4.969606 -0.3057152,1.328398 -0.6589638,2.65098 -0.7693665,4.014101 -0.115969,1.16855 -0.2830642,2.336249 -0.142783,3.51219 0.074755,1.42607 0.075263,2.855465 0.2042443,4.278431 0.1709852,1.565159 0.4253347,3.12316 0.4242682,4.702802 0.1289155,1.499809 0.2507718,2.994941 0.2245785,4.501968 0.07103,1.278617 0.1405618,2.594186 0.6652255,3.78211 0.368256,0.727485 0.883307,1.497986 1.622134,1.881508 0.17946,0.159678 0.387032,0.285847 0.565873,0.446219 0.112872,0.101217 0.194138,0.234471 0.307579,0.33505 4.831907,4.28403 35.430568,-31.448195 19.323224,0.424945 0.838295,-0.606618 1.216184,-0.847717 1.534078,-1.919068 0.250105,-0.688901 0.408821,-1.4107 0.62021,-2.112317 0.229939,-0.750536 0.362802,-1.53929 0.742579,-2.233885 0.319551,-0.761979 0.613918,-1.536017 0.771129,-2.350569 0.36196,-1.498925 0.581236,-3.025854 0.948682,-4.524018 0.604969,-2.950117 1.25617,-5.892194 2.17008,-8.765235 0.73446,-2.453532 1.391986,-4.924406 1.918092,-7.431267 0,0 -18.563125,0 -18.563125,0 z"
       id="path839"
       style="fill:#ebb800;fill-opacity:0.895582;stroke-width:1.32292;stroke-linecap:round;stroke-opacity:0.7;paint-order:stroke fill markers" />
    <path
       d="m 61.821998,46.886976 c -0.42102,-3.0979 0.411084,-6.173748 1.173621,-9.151173 0.910177,-3.582887 2.147403,-7.055678 3.434164,-10.515758 0.666343,-2.07364 1.563257,-4.056387 2.364894,-6.077376 0.750588,-1.9867 1.669145,-3.894858 2.700432,-5.750341 0.911585,-1.554883 1.924379,-3.034726 3.080139,-4.419306 0.590376,-0.611679 1.118717,-1.3063568 1.765867,-1.8626792 0.252775,-0.2172989 0.5393,-0.3919818 0.805695,-0.5923497 0.128493,-0.1038749 0.248913,-0.2186136 0.385472,-0.3116249 0.63287,-0.4310484 0.139689,-5.292e-4 0.790242,-0.421952 0.431654,-0.2796175 0.829333,-0.6150364 1.265004,-0.8941953 1.043088,-0.3636103 1.941378,-0.9939756 2.910859,-1.5064637 0.749969,-0.2647235 0.0673,0.018312 0.760415,-0.3997968 0.100497,-0.060622 0.223319,-0.081593 0.318278,-0.1505693 0.366268,-0.266055 0.3186,-0.3911505 0.788638,-0.4831215 6.459757,0.3858429 14.343033,0.06928 -16.492064,0.097547 0.614765,-0.1330037 1.407382,-0.023466 1.807668,0.5176671 0.141536,0.1913395 0.230934,0.416225 0.346403,0.6243375 1.240531,2.955526 1.267598,5.8082218 1.12618,8.9534018 -0.159988,3.476881 -1.107744,6.829071 -1.885391,10.198868 -0.579631,2.380261 -1.301647,4.721356 -1.889832,7.100037 -0.532257,1.848844 -0.92094,3.73826 -1.527527,5.565536 -0.50207,1.484323 -0.854678,3.004603 -1.142063,4.542925 -0.182052,0.974625 -0.248698,1.963476 -0.276159,2.952777 -0.06936,0.819639 0.09725,1.621745 0.225044,2.425935 0.0694,0.795131 0.438584,1.466128 0.802963,2.15515 0.323935,0.669211 0.679871,1.3412 1.096904,1.957687 0.332915,0.588251 0.771623,1.097611 1.18346,1.632492 4.875602,4.889341 4.866505,0.989264 19.384045,0.406927 0.237706,-0.0095 0.271446,-0.390769 0.407331,-0.586042 0.616241,-0.885573 0.302173,-0.451196 0.997183,-1.368356 1.718582,-2.27798 2.857375,-4.892799 3.96504,-7.50326 1.386531,-3.560035 2.633231,-7.166825 4.075314,-10.705648 1.566124,-3.722277 3.370024,-7.334959 5.116423,-10.973393 1.09718,-2.064188 2.07161,-4.195219 3.27531,-6.201616 0.58004,-0.966854 1.1984,-1.9102 1.79544,-2.866647 1.43443,-2.640854 3.22937,-5.0601035 4.92738,-7.5336628 0.54941,-0.7239249 1.15213,-1.4036755 1.76337,-2.0690562 0.6324,-0.6884059 -0.0302,-0.1091454 0.6141,-0.6362515 0.21645,-0.1830036 0.3646,-0.3487195 0.64334,-0.4342954 0.11598,-0.035606 0.24638,-0.00442 0.36142,-0.042949 0.13586,-0.045509 0.24702,-0.1465596 0.37796,-0.2047173 0.29447,-0.1307796 0.41365,-0.1342013 0.72348,-0.190916 5.96419,2.2324893 0.7259,0.225451 -17.669977,0.1655248 -0.122777,-3.995e-4 0.233667,-0.1014093 0.356206,-0.093757 0.145992,0.00912 0.299069,0.053046 0.415242,0.1419289 0.4811,0.368081 0.631002,0.8581449 0.890119,1.3842506 0.96627,2.5645546 0.80488,5.3000258 0.61098,7.9795659 -0.51711,3.73797 -1.496596,7.388838 -2.221713,11.08806 -0.36142,2.022813 -0.82187,4.032606 -1.089673,6.071728 -0.252677,1.923939 -0.424156,3.858475 -0.684276,5.782795 -0.488823,2.578425 -0.511463,5.191839 -0.246875,7.794778 0.21431,1.614024 0.791441,3.133246 1.486445,4.59396 0.392991,0.809588 0.887871,1.561145 1.5459,2.177712 0.211301,0.339725 0.541412,0.558434 0.821822,0.820888 0.15701,0.146952 0.33467,0.471707 0.43381,0.632989 6.24902,-0.03732 12.49804,-0.07464 18.74707,-0.111966 0.46237,-0.961263 1.20881,-1.687388 1.98466,-2.394625 0.0988,-0.162192 0.18709,-0.33129 0.29643,-0.486582 0.32116,-0.456128 0.69706,-0.879226 1.00139,-1.349904 0.0771,-0.119269 0.75561,-1.308738 0.81176,-1.406835 0.15212,-0.240667 0.3045,-0.481171 0.45635,-0.722005 0.5264,-0.834853 1.13388,-2.22622 1.78203,-2.897426 0.12356,-0.12795 0.28758,-0.209399 0.43137,-0.314097 6.20287,1.591654 1.5818,0.365892 -17.59595,0.577011 -0.14612,0.0016 0.19367,-0.273621 0.33976,-0.277027 0.46754,-0.0109 1.06793,0.959006 1.27281,1.265127 0.79868,1.161978 1.21397,2.508194 1.6975,3.816146 0.42788,1.179743 0.34897,2.447819 0.68245,3.648908 0.13819,0.678138 0.64271,1.158836 0.96196,1.74257 0,0 18.57225,-0.675129 18.57225,-0.675129 v 0 c -0.19641,-0.667102 -0.4614,-1.326336 -1.03591,-1.7559 -0.12253,-0.22742 -0.28143,-0.43693 -0.37807,-0.676497 -0.36329,-0.900554 -0.29629,-1.931392 -0.56289,-2.857746 -0.42071,-1.460696 -1.07918,-2.8663 -1.7352,-4.234363 -0.36754,-0.667943 -0.727,-1.342845 -1.07853,-2.019059 -0.13794,-0.265345 -0.0951,-0.800301 -0.39409,-0.805989 -18.47054,-0.351539 -15.54675,-4.892903 -19.06143,0.980815 -0.76377,1.424244 -1.45904,2.887078 -2.46348,4.167164 -0.72249,0.996392 -1.53806,1.943518 -2.41211,2.806401 -0.38545,0.399103 -1.18323,1.47469 -1.75819,1.504823 -0.11415,0.006 -0.21706,-0.07176 -0.32559,-0.107643 6.09301,0.0013 12.18692,-0.101193 18.27902,0.0042 0.12138,0.0021 -0.0902,0.244546 -0.19327,0.308686 -0.19157,0.119214 -0.45195,-0.235383 -0.52721,-0.281141 -0.0876,-0.05326 -0.1938,-0.06698 -0.2907,-0.100472 -0.093,-0.06559 -0.18606,-0.131183 -0.27909,-0.196774 -0.52183,-0.621924 -1.19437,-1.085127 -1.70961,-1.720254 -0.80734,-1.218809 -1.51947,-2.489526 -1.82737,-3.936357 -0.54326,-2.476241 -0.58158,-4.830292 -0.48724,-7.360105 0.0686,-1.572565 0.0648,-2.103657 0.25078,-3.702352 0.0777,-0.668017 0.1973,-1.330568 0.28397,-1.997482 0.259,-1.99289 0.4566,-3.997062 0.94462,-5.953253 0.86656,-3.760459 2.00582,-7.456864 2.68115,-11.261503 0.39403,-2.9065007 0.49147,-5.8503593 -0.0847,-8.744389 -0.20628,-0.948751 -0.37271,-1.9519728 -0.83538,-2.82094127 -0.10418,-0.19566998 -0.15568,-0.53997476 -0.37723,-0.54768894 C 98.759988,-0.81943913 103.32761,-3.744673 97.76122,-0.05709383 96.912431,0.44377641 96.228428,0.84334246 95.629776,1.6701258 94.924178,2.6510056 94.283362,3.670342 93.79674,4.7835317 c -1.293584,2.5959146 -2.797119,5.0856847 -4.343312,7.5373353 -1.815777,2.991927 -3.523771,6.039649 -4.885325,9.270817 -1.691595,3.670841 -3.310779,7.374891 -4.968542,11.061095 -1.48591,3.545679 -2.871038,7.133863 -4.461173,10.635017 -1.196116,2.494373 -2.528488,4.972899 -4.60564,6.854854 -0.333975,0.274759 -0.850201,0.781518 -1.31786,0.908614 -0.15463,0.04202 -0.640522,-0.02019 -0.480282,-0.0204 6.017934,-0.0077 12.036343,-0.07666 18.053822,-0.0021 0.112268,0.0013 -0.153376,0.170396 -0.252759,0.222644 -0.07106,0.03736 -0.158813,0.02365 -0.238218,0.03546 -0.382399,-0.0089 -0.336034,-0.117287 -0.595235,-0.372337 -0.05405,-0.05318 -0.143476,-0.06008 -0.196919,-0.113866 -0.616747,-0.620726 0.183597,-0.0029 -0.3907,-0.421841 -0.06319,-0.102341 -0.12637,-0.204682 -0.189555,-0.307023 -0.06718,-0.06841 -0.148008,-0.125679 -0.201549,-0.205218 -0.258064,-0.383387 -0.404453,-0.853292 -0.738344,-1.188207 -0.117853,-0.286713 -0.275727,-0.750938 -0.428672,-1.014251 -0.03077,-0.05298 -0.110514,-0.06367 -0.142764,-0.115761 -0.09561,-0.154421 -0.08988,-0.358418 -0.211521,-0.502137 -0.105712,-0.708429 -0.290103,-1.404662 -0.24183,-2.12671 -0.01021,-0.901396 -0.02421,-1.804389 0.0483,-2.703883 0.147981,-1.469821 0.535913,-2.881259 0.908473,-4.307623 0.451654,-1.88804 0.966002,-3.759689 1.38978,-5.654688 0.521253,-2.372683 0.956421,-4.762786 1.419963,-7.147314 C 87.392496,21.63886 88.026662,18.164022 88.29369,14.637982 88.503005,11.430947 88.672346,8.1750124 88.144711,4.9906729 87.982741,4.1965094 87.857353,3.2984757 87.365418,2.6193556 87.087418,2.2355745 86.588178,1.9955404 86.232046,1.6993228 79.991481,1.6844155 73.750931,1.6481135 67.51035,1.6546007 67.174895,1.65495 66.754824,1.8081574 66.458287,1.9542995 66.171571,2.0956018 66.099173,2.1706029 65.846888,2.3637128 65.319573,2.830078 64.732741,3.0821926 64.141791,3.4592085 c -0.918961,0.587049 -1.961999,0.9425101 -2.833497,1.6085304 -0.87585,0.5781079 -1.777479,1.1177714 -2.519553,1.8703747 -0.883396,0.8660141 -1.639363,1.8572316 -2.351545,2.8663556 -1.02298,1.5222788 -2.014154,3.0702338 -2.829139,4.7162358 -0.991336,1.963648 -1.887972,3.974021 -2.860474,5.946006 -0.786506,2.020653 -1.241581,4.127049 -1.820548,6.212679 -0.947994,3.554902 -1.859812,7.116191 -3.016128,10.612289 -0.863343,3.134069 -1.568842,6.3169 -2.565101,9.411142 0,0 18.476192,0.184155 18.476192,0.184155 z"
       id="path841"
       style="fill:#ebb800;fill-opacity:0.895582;stroke-width:1.32292;stroke-linecap:round;stroke-opacity:0.7;paint-order:stroke fill markers" />
  </g>
</svg>
